<?xml version="1.0" encoding="UTF-8"?>
<svg version="1.1" xmlns="http://www.w3.org/2000/svg" width="1834" height="1345">
<path d="M0 0 C-1.4561547 3.83672222 -3.21358953 4.96544196 -6.875 6.6875 C-7.73867187 7.10386719 -8.60234375 7.52023437 -9.4921875 7.94921875 C-15.79281549 10.5892015 -21.80751596 10.38590636 -28.4375 9.25 C-35.16050003 8.45294329 -40.36982845 11.71536874 -45.75 15.4375 C-92.04777937 52.29236595 -115.64172157 116.96284336 -135 171 C-103.98068239 167.57991047 -73.70456253 161.2352186 -49 141 C-48.19820312 140.35160156 -47.39640625 139.70320312 -46.5703125 139.03515625 C-42.31435099 135.43452445 -38.96971127 131.71356159 -35.625 127.25 C-31.17030829 121.66420396 -27.00631445 119.28547226 -20 118 C-16.62035106 117.65277579 -13.36121755 117.43431564 -10 118 C-9.34 118.66 -8.68 119.32 -8 120 C-8.37358782 126.86765703 -10.27799796 133.38367922 -12.0625 140 C-12.34416016 141.06089844 -12.62582031 142.12179687 -12.91601562 143.21484375 C-13.60603133 145.81117401 -14.30079203 148.40613311 -15 151 C-14.22398438 150.38253906 -13.44796875 149.76507813 -12.6484375 149.12890625 C3.34717569 136.53192225 20.5844519 125.49645716 40 119 C40.90363281 118.6803125 41.80726562 118.360625 42.73828125 118.03125 C49.37673062 116.00309574 55.85822007 115.69494607 62.75 115.625 C63.63751953 115.61106201 64.52503906 115.59712402 65.43945312 115.58276367 C71.28787505 115.62492926 75.64274044 116.64529754 81 119 C79.98021312 121.71750026 79.22307486 122.8563181 76.75 124.44921875 C67.37196975 128.67199658 60.90339633 129.82954181 51 127 C31.50503852 126.53662231 16.06380554 141.81982619 2.65234375 154.16015625 C-5.00173725 161.57076747 -11.4093443 170.09399442 -17.75 178.625 C-18.19770752 179.2219165 -18.64541504 179.81883301 -19.10668945 180.43383789 C-25.30241091 188.87920315 -28.96054872 197.13943666 -31.6796875 207.25390625 C-32.17450623 209.03967072 -32.17450623 209.03967072 -32.67932129 210.86151123 C-33.57091671 214.08918249 -34.45196138 217.31937088 -35.32811737 220.55124283 C-36.06235871 223.25154464 -36.80574034 225.9492921 -37.5493412 228.64702892 C-41.54623252 243.14805731 -45.45903029 257.671694 -49.34375 272.203125 C-49.51614323 272.8477664 -49.68853645 273.4924078 -49.86615372 274.15658379 C-51.67633744 280.92723995 -53.47854854 287.69988501 -55.26513672 294.47680664 C-55.56270874 295.59984192 -55.86028076 296.7228772 -56.16687012 297.87994385 C-56.71708673 299.95688022 -57.26415135 302.0346556 -57.80725098 304.11346436 C-62.1481354 320.46166326 -62.1481354 320.46166326 -68 324 C-73.08071732 326.36312433 -78.47639474 326.64648048 -84 326 C-84.99 325.34 -85.98 324.68 -87 324 C-87.88934127 317.33792173 -85.65357298 311.02933608 -83.90625 304.6484375 C-83.57161743 303.40089691 -83.23698486 302.15335632 -82.89221191 300.86801147 C-81.96711251 297.42309783 -81.03009262 293.9815289 -80.09039307 290.54057312 C-79.49883843 288.37073933 -78.91070273 286.20000823 -78.32373047 284.02893066 C-66.93559699 241.91347001 -54.99184727 199.94695435 -43 158 C-43.91136719 158.556875 -44.82273437 159.11375 -45.76171875 159.6875 C-71.62193587 175.08000118 -105.20856783 185.40672082 -135.5 185.0625 C-136.5415625 185.05347656 -137.583125 185.04445313 -138.65625 185.03515625 C-139.81640625 185.01775391 -139.81640625 185.01775391 -141 185 C-141.1151445 185.55506226 -141.230289 186.11012451 -141.34892273 186.68200684 C-142.47468558 191.94635497 -143.85797875 197.03849014 -145.51953125 202.15625 C-146.04214187 203.79702334 -146.5641616 205.43798498 -147.08569336 207.07910156 C-147.36508759 207.95505981 -147.64448181 208.83101807 -147.93234253 209.73352051 C-154.59383231 230.671677 -160.72713438 251.74589152 -166.7584343 272.87172699 C-177.77802112 311.46532076 -188.88003143 350.05611415 -202 388 C-201.06542969 387.52691406 -200.13085938 387.05382812 -199.16796875 386.56640625 C-194.78870702 384.35723775 -190.39654594 382.17453746 -186 380 C-185.278125 379.64196289 -184.55625 379.28392578 -183.8125 378.91503906 C-102.70023967 338.90994327 -11.70631195 319.18733219 124.6875 305.25 C126.01217789 305.16125107 126.01217789 305.16125107 127.36361694 305.07070923 C153.52048242 303.35117473 179.66865419 302.79113829 205.875 302.8125 C206.61338356 302.81276688 207.35176712 302.81303375 208.11252594 302.81330872 C291.66136203 302.85104443 375.05348294 310.19231453 632 422 C633.26753302 423.08719295 634.53830631 424.17062105 635.8125 425.25 C657.11599576 443.82560911 657.11599576 443.82560911 660.859375 451.83984375 C661.08290296 455.27348163 659.85223077 457.15416366 658 460 C642.16259581 471.3225621 619.64182665 475.15395932 601 479 C602.00675781 479.44988281 603.01351563 479.89976562 604.05078125 480.36328125 C633.29067964 493.64710264 658.87207076 511.80246013 682 534 C683.35931641 535.29744141 683.35931641 535.29744141 684.74609375 536.62109375 C696.92225695 548.50072938 696.92225695 548.50072938 700 554 C699.94804302 557.13631242 699.54984129 558.45652261 697.3125 560.66796875 C694.5587356 562.47745245 691.8011484 564.26402957 689 566 C688.09338623 566.56726807 688.09338623 566.56726807 687.16845703 567.14599609 C648.79211243 591 648.79211243 591 633 591 C633.56589844 592.07378906 634.13179687 593.14757812 634.71484375 594.25390625 C635.45626674 595.68982672 636.19712213 597.12604037 636.9375 598.5625 C637.31068359 599.26697266 637.68386719 599.97144531 638.06835938 600.69726562 C640.37501862 605.20668054 641.58151061 608.94491389 642 614 C642.99193359 614.14115234 642.99193359 614.14115234 644.00390625 614.28515625 C660.9340721 618.32455697 675.68466093 630.27422504 688 642 C688.72703125 642.64066406 689.4540625 643.28132812 690.203125 643.94140625 C691.18539063 644.83666016 691.18539063 644.83666016 692.1875 645.75 C692.75855469 646.26046875 693.32960938 646.7709375 693.91796875 647.296875 C695 649 695 649 695.04296875 651.3125 C693.57407972 655.09750245 691.00626081 657.50085475 688.125 660.25 C687.53638184 660.82282715 686.94776367 661.3956543 686.34130859 661.98583984 C681.14409482 666.98396962 675.72398321 671.61289341 670 676 C669.20118408 676.62140869 669.20118408 676.62140869 668.38623047 677.25537109 C657.8173299 685.44194994 646.62068516 692.4086093 635 699 C634.17258301 699.46937988 633.34516602 699.93875977 632.49267578 700.42236328 C604.30034507 716.21382967 573.22945514 726.97325121 542 735 C557.01556634 734.47786695 571.92236899 733.40837426 586.87548828 731.953125 C590.23284173 731.62666841 593.59092022 731.30875847 596.94921875 730.9921875 C609.40013152 729.80581367 621.82780121 728.49949879 634.23736572 726.93325806 C650.7984178 724.92079304 650.7984178 724.92079304 656.1875 727.5625 C658 730 658 730 657.97802734 733.24658203 C656.73239465 738.02700065 654.65991994 740.14703847 651.1640625 743.4921875 C650.5700766 744.08242706 649.9760907 744.67266663 649.36410522 745.28079224 C648.10501265 746.52647336 646.83876084 747.76495441 645.56591797 748.99658203 C643.6522505 750.848627 641.76010527 752.72050355 639.87109375 754.59765625 C632.88697494 761.49259242 625.74494748 767.96156637 618 774 C616.90969482 774.86383301 616.90969482 774.86383301 615.79736328 775.74511719 C600.3241806 787.94054875 584.18761684 798.39020934 567 808 C565.89543457 808.62624268 565.89543457 808.62624268 564.76855469 809.26513672 C506.30845057 842.23558918 439.35302429 853.16368692 373.3125 857.6875 C371.98593384 857.77877167 371.98593384 857.77877167 370.63256836 857.87188721 C347.22269479 859.45789687 323.83803722 860.20982193 300.375 860.1875 C299.18478241 860.18689575 297.99456482 860.1862915 296.76828003 860.18566895 C216.65921105 860.07621483 138.70226738 849.1543286 -32.6015625 782.67578125 C-35.84451542 781.07666998 -39.09357173 779.49061008 -42.34375 777.90625 C-56.20073726 771.11166983 -69.65136417 763.74008764 -83 756 C-84.73502875 755.00085679 -86.47005804 754.00171451 -88.20510864 753.00260925 C-112.47371898 739.0095923 -135.98864362 723.98325739 -159 708 C-159.75716309 707.4745459 -160.51432617 706.9490918 -161.29443359 706.40771484 C-172.68467798 698.48262857 -183.86535564 690.27911595 -195 682 C-196.04220703 681.2265625 -196.04220703 681.2265625 -197.10546875 680.4375 C-217.37249024 665.38423839 -237.19856873 649.77865597 -256.38916016 633.37255859 C-258.03894684 631.96681432 -259.69654745 630.57072891 -261.35546875 629.17578125 C-274.85961732 617.77590128 -287.61289041 605.5982535 -300 593 C-303.8806233 596.54037907 -306.66628649 600.63790344 -309.625 604.9375 C-318.15072499 617.15540661 -327.2742676 628.7187545 -337 640 C-337.60328125 640.70511719 -338.2065625 641.41023437 -338.828125 642.13671875 C-340.5322966 644.10975238 -342.26022778 646.05825829 -344 648 C-344.87011719 648.97453125 -345.74023438 649.9490625 -346.63671875 650.953125 C-361.79547172 667.75907347 -378.80592724 682.0012538 -398 694 C-398.62068359 694.38929688 -399.24136719 694.77859375 -399.88085938 695.1796875 C-420.40657526 707.85670995 -446.09317663 717.2943507 -470.4375 717.0625 C-471.67371094 717.05347656 -472.90992188 717.04445313 -474.18359375 717.03515625 C-475.11300781 717.02355469 -476.04242187 717.01195312 -477 717 C-476.76879883 715.16235352 -476.76879883 715.16235352 -476 713 C-469.53050894 708.1264018 -461.60352573 706.85153779 -453.8125 705.5625 C-428.37210819 700.86833018 -408.07252646 688.43511671 -389.25390625 671.06640625 C-387.2536994 669.23259442 -385.20656762 667.48962633 -383.125 665.75 C-377.27573674 660.64070378 -372.16318042 654.78562237 -367 649 C-366.51515137 648.45988281 -366.03030273 647.91976562 -365.53076172 647.36328125 C-356.35090131 637.08532165 -348.1189162 626.12567673 -340 615 C-339.45811035 614.25814453 -338.9162207 613.51628906 -338.35791016 612.75195312 C-334.8238728 607.88918864 -331.37682188 602.97315749 -328 598 C-327.15236084 596.75379883 -327.15236084 596.75379883 -326.28759766 595.48242188 C-324.54529895 592.89760314 -322.83100899 590.29638297 -321.125 587.6875 C-320.58206299 586.88046631 -320.03912598 586.07343262 -319.47973633 585.24194336 C-318.99400146 584.48534424 -318.5082666 583.72874512 -318.0078125 582.94921875 C-317.57098145 582.28237061 -317.13415039 581.61552246 -316.68408203 580.9284668 C-315.76178062 578.971866 -315.76178062 578.971866 -316.74536133 576.90380859 C-318.44448704 574.32552833 -320.44650967 572.18594669 -322.5625 569.9375 C-334.80209479 556.69118529 -334.80209479 556.69118529 -338.22607422 550.94091797 C-340.16874402 547.86312765 -341.69114739 545.49832327 -345.171875 544.1730957 C-348.00929174 543.72696974 -350.75309207 543.57733603 -353.625 543.5 C-354.76759277 543.44432861 -355.91018555 543.38865723 -357.08740234 543.33129883 C-361.3919211 543.15742575 -365.692818 543.07128501 -370 543 C-370.89251465 542.98257751 -371.7850293 542.96515503 -372.70458984 542.94720459 C-405.59096175 542.31385717 -438.21633133 543.4358693 -471 546 C-472.1006781 546.08485657 -473.2013562 546.16971313 -474.33538818 546.25714111 C-590.41814921 555.23114093 -706.69584187 572.8553902 -954 646 C-955.28898193 646.57331055 -955.28898193 646.57331055 -956.60400391 647.15820312 C-964.09807354 650.507277 -971.4105588 654.01647251 -978.484375 658.19140625 C-979.41403076 658.73933838 -980.34368652 659.28727051 -981.30151367 659.85180664 C-983.08623733 660.91721202 -984.86076481 661.99997187 -986.62231445 663.10327148 C-992.93686973 666.9054571 -998.94146751 668.94382642 -1006.35791016 667.56005859 C-1009.64745067 666.53786029 -1011.61852742 665.69028373 -1013.3125 662.625 C-1012.85142936 658.75200661 -1010.87729563 657.57038409 -1008 655 C-1005.62292351 653.39836364 -1003.28995103 651.92458651 -1000.8125 650.5 C-1000.08039307 650.0769458 -999.34828613 649.6538916 -998.59399414 649.21801758 C-906.03830949 596.60132932 -793.51028706 575.77042304 -417.125 525.75 C-416.11864502 525.70880035 -415.11229004 525.66760071 -414.07543945 525.62515259 C-397.52428573 524.96411107 -381.05620406 524.76693786 -364.5 525.4375 C-363.34580566 525.48116699 -362.19161133 525.52483398 -361.00244141 525.56982422 C-354.45168799 525.82702161 -347.9150757 526.17550513 -341.375 526.625 C-337.06970991 526.91709933 -333.19157831 527.02270869 -328.9375 526.3125 C-321.42561209 525.71631842 -314.97089251 531.13173655 -308.8125 535.0625 C-307.44424731 535.9287597 -306.07576318 536.79465396 -304.70703125 537.66015625 C-303.81721558 538.22682007 -303.81721558 538.22682007 -302.90942383 538.80493164 C-300.62480841 540.23482455 -298.31430413 541.61879062 -296 543 C-290.77975723 534.74261457 -286.44333205 526.12191053 -282.125 517.375 C-281.43006515 515.97507289 -280.73475514 514.57533194 -280.0390625 513.17578125 C-278.35505076 509.78598065 -276.67610622 506.39371602 -275 503 C-275.55872803 503.20681396 -276.11745605 503.41362793 -276.69311523 503.62670898 C-279.27086388 504.57410943 -281.85402158 505.50584335 -284.4375 506.4375 C-285.31599609 506.76298828 -286.19449219 507.08847656 -287.09960938 507.42382812 C-301.52970562 512.58884412 -301.52970562 512.58884412 -308.5 509.875 C-312 508 -312 508 -313.25 505.5625 C-312.90410767 502.01710367 -311.73224051 501.26026869 -309 499 C-306.43518595 497.80618508 -303.95892959 496.78109909 -301.3125 495.8125 C-300.54373535 495.51335693 -299.7749707 495.21421387 -298.98291016 494.90600586 C-294.21934491 493.08073636 -289.43760883 491.52021525 -284.53515625 490.109375 C-271.56868162 486.81852137 -271.56868162 486.81852137 -262.07861328 478.23022461 C-260.86113768 475.50435628 -259.90337373 472.73738675 -258.99804688 469.89355469 C-257.72663733 466.20746224 -256.21094611 462.65137221 -254.671875 459.0703125 C-254.22101532 458.01944962 -254.22101532 458.01944962 -253.76104736 456.94735718 C-253.14714409 455.51652799 -252.53306842 454.08577277 -251.91882324 452.65509033 C-250.44029906 449.18722729 -248.9997569 445.70387771 -247.5625 442.21875 C-247.06878906 441.02185547 -246.57507813 439.82496094 -246.06640625 438.59179688 C-245.71449219 437.73650391 -245.36257813 436.88121094 -245 436 C-248.74478382 437.80136494 -252.02105848 440.06419997 -255.375 442.5 C-255.98859375 442.93997314 -256.6021875 443.37994629 -257.234375 443.83325195 C-260.3565907 446.07415855 -263.45978525 448.33716896 -266.5390625 450.63671875 C-299.38174338 474.99430707 -342.00665571 479.36589463 -381.609375 483.12109375 C-429.91946609 487.72787727 -477.94298634 494.2868349 -526 501 C-527.28273552 501.17907269 -527.28273552 501.17907269 -528.59138489 501.361763 C-593.68417026 510.45561682 -658.58875634 520.88097714 -723 534 C-724.58325073 534.32103699 -724.58325073 534.32103699 -726.19848633 534.64855957 C-776.52965625 544.86922183 -826.95880183 556.662331 -876 572 C-877.38200592 572.43122162 -877.38200592 572.43122162 -878.79193115 572.87115479 C-906.59736939 581.56620386 -934.07897442 590.84454889 -961 602 C-961.65750244 602.27201233 -962.31500488 602.54402466 -962.99243164 602.82427979 C-985.33162072 612.0885379 -1007.62740024 622.0009743 -1028.75 633.8125 C-1034.9554511 637.19005905 -1039.7822126 639.00860134 -1046.875 637.3125 C-1049.37303638 635.76959518 -1050.65233225 634.62046507 -1052 632 C-1052 628.59475771 -1051.20473335 627.24176412 -1049.00366211 624.64257812 C-1045.48986283 621.2536084 -1041.28524793 619.2944779 -1036.94140625 617.15625 C-1035.60977951 616.48723412 -1035.60977951 616.48723412 -1034.25125122 615.80470276 C-1031.36073556 614.35793763 -1028.46246968 612.9277108 -1025.5625 611.5 C-1024.5686026 611.00756805 -1023.5747052 610.51513611 -1022.5506897 610.00778198 C-1005.92365799 601.77513251 -989.22323921 593.91877311 -972 587 C-971.29069336 586.71463379 -970.58138672 586.42926758 -969.85058594 586.13525391 C-875.7404944 548.37250513 -777.2322496 525.73753608 -469.07390594 475.49036789 C-465.93817551 475.07095001 -462.80271302 474.64957755 -459.66729736 474.22781372 C-434.33910624 470.82654202 -409.01160779 467.82735704 -383.56808472 465.43325806 C-378.60354751 464.96482731 -373.64096335 464.47733903 -368.67871094 463.98535156 C-367.89585535 463.90809782 -367.11299976 463.83084408 -366.30642128 463.75124931 C-330.87420619 460.22792428 -300.8595175 453.63292204 -272.3515625 431.3671875 C-268.15872872 428.10109192 -263.89147849 424.95780305 -259.5625 421.875 C-258.52246826 421.11751465 -258.52246826 421.11751465 -257.46142578 420.34472656 C-253.8490657 417.77101371 -250.33080578 415.60970295 -246.28125 413.7890625 C-237.42773884 409.64265443 -232.41108467 405.61022547 -228.89253235 396.26502991 C-227.64567945 392.68438611 -226.55633004 389.09331123 -225.50805664 385.44995117 C-223.88002342 379.86446817 -222.1579368 374.32007923 -220.32763672 368.79760742 C-220.09652034 368.09960368 -219.86540396 367.40159994 -219.62728405 366.68244457 C-219.14526274 365.22732867 -218.66316127 363.77223931 -218.1809845 362.31717491 C-211.61759759 342.44953935 -205.83841454 322.39242077 -200.21356201 302.24243164 C-198.07920405 294.6002946 -195.93252206 286.9616098 -193.78125 279.32421875 C-193.54656761 278.49080837 -193.31188522 277.65739799 -193.07009125 276.79873276 C-189.38070108 263.71417463 -185.57218327 250.66773855 -181.671875 237.64453125 C-181.43088577 236.83739874 -181.18989655 236.03026623 -180.94160461 235.19867516 C-176.00072704 218.67468126 -170.58320804 202.31707522 -165 186 C-165.95100586 186.01571045 -166.90201172 186.0314209 -167.88183594 186.04760742 C-187.93772803 186.34675374 -207.8600274 186.00686176 -227.875 184.625 C-229.29226379 184.53017838 -229.29226379 184.53017838 -230.73815918 184.43344116 C-233.44862176 184.24900752 -236.15794185 184.05302297 -238.8671875 183.8515625 C-239.65948761 183.79624863 -240.45178772 183.74093475 -241.26809692 183.6839447 C-246.64441038 183.25782463 -251.76636023 182.29457241 -257 181 C-257.8125 178.8125 -257.8125 178.8125 -258 176 C-254.89598415 172.04943438 -251.60849261 169.89656025 -247 168 C-244.18491277 167.74686204 -241.63478518 167.64443201 -238.83203125 167.71875 C-238.04842728 167.72950562 -237.2648233 167.74026123 -236.45747375 167.75134277 C-228.34586368 167.9144317 -220.27714682 168.5762471 -212.19799805 169.28256226 C-194.7469806 170.79401926 -177.51730884 171.41135299 -160 171 C-159.69932617 170.20231201 -159.39865234 169.40462402 -159.08886719 168.58276367 C-151.97108386 149.77013415 -144.40545626 131.28284967 -136 113 C-135.40324463 111.68684814 -135.40324463 111.68684814 -134.79443359 110.34716797 C-125.29979604 89.47707389 -114.26806792 69.71546194 -101 51 C-100.53271484 50.34064453 -100.06542969 49.68128906 -99.58398438 49.00195312 C-82.67711202 25.53270958 -58.11069423 3.18930075 -29 -3 C-27.97326172 -3.22816406 -27.97326172 -3.22816406 -26.92578125 -3.4609375 C-18.32630423 -4.89153442 -7.91036538 -3.57777976 0 0 Z M131 322 C130.17006531 322.06316406 129.34013062 322.12632812 128.48504639 322.19140625 C45.24386343 328.5438231 -38.91023393 342.13250478 -168 390 C-168.89251465 390.39928711 -169.7850293 390.79857422 -170.70458984 391.20996094 C-180.28249067 395.53304555 -189.61463746 400.28480479 -198.875 405.25 C-199.80940918 405.74564453 -200.74381836 406.24128906 -201.70654297 406.75195312 C-202.58455566 407.23083984 -203.46256836 407.70972656 -204.3671875 408.203125 C-205.14175293 408.62239258 -205.91631836 409.04166016 -206.71435547 409.47363281 C-212.23091835 413.15762674 -214.94679776 417.29270702 -217.234375 423.40625 C-217.51411667 424.12011368 -217.79385834 424.83397736 -218.08207703 425.56947327 C-218.98325264 427.87523295 -219.86663152 430.18736722 -220.75 432.5 C-221.98034158 435.66745433 -223.21892655 438.83166738 -224.45703125 441.99609375 C-224.75984512 442.7738768 -225.062659 443.55165985 -225.37464905 444.35301208 C-228.2460675 451.702274 -231.35030206 458.94222668 -234.59863281 466.1328125 C-235.45438055 468.0649879 -236.23648054 470.02955742 -237 472 C-236.67 472.66 -236.34 473.32 -236 474 C-234.93305908 473.6690332 -233.86611816 473.33806641 -232.7668457 472.99707031 C-139.36602074 444.09629641 -44.05027774 424.23167925 70 416 C71.0394577 415.93804947 71.0394577 415.93804947 72.09991455 415.87484741 C89.44424248 414.8439524 106.78452314 414.81244523 124.15283203 414.81469727 C127.44260226 414.8147779 130.73223136 414.80791932 134.02197266 414.79418945 C164.13931433 414.67068887 194.14712835 415.69078081 224.125 418.75 C224.95044312 418.83236908 225.77588623 418.91473816 226.62634277 418.99960327 C253.14792661 421.66567049 279.54472494 425.43435476 305.75 430.3125 C306.89746704 430.52448532 306.89746704 430.52448532 308.06811523 430.74075317 C316.22326479 432.2635697 324.2309254 433.98207986 332.1875 436.33984375 C360.86854578 444.64357818 389.89251711 444.59954141 419.51787949 445.47163391 C462.26576928 446.74020063 506.47497591 450.61475784 547.84619141 462.06445312 C551.93741057 463.08699392 555.93198085 463.30539955 560.13671875 463.30078125 C561.26698738 463.30911232 561.26698738 463.30911232 562.42008972 463.31761169 C564.84276076 463.32933543 567.26482979 463.32315805 569.6875 463.3125 C570.92829315 463.31026428 570.92829315 463.31026428 572.19415283 463.3079834 C590.82259793 463.24750583 612.06052334 462.76226927 629 454 C624.86365645 448.08240434 620.29430178 443.08379301 615 438.1875 C613.88069092 437.14493042 613.88069092 437.14493042 612.73876953 436.08129883 C606.65111567 430.47383993 600.35673567 425.24105979 593.72705078 420.29003906 C591.96398964 418.97310168 590.21450342 417.63936071 588.46484375 416.3046875 C521.11054359 365.41880894 435.78709523 342.85381569 279.75 322.25 C278.57151993 322.16125107 278.57151993 322.16125107 277.36923218 322.07070923 C271.91540045 321.66718831 266.45962325 321.31526691 261 321 C259.75246948 320.9274147 259.75246948 320.9274147 258.47973633 320.85336304 C240.66066225 319.85656627 222.84062722 319.79821715 205 319.8125 C204.25121582 319.81276688 203.50243164 319.81303375 202.73095703 319.81330872 C178.76905687 319.82400827 154.8997066 320.13354318 131 322 Z M-78 448 C-78.84874695 448.15815186 -79.6974939 448.31630371 -80.57196045 448.47924805 C-126.00140383 456.9828483 -171.035765 468.09693686 -215.12310791 481.97686768 C-219.89328408 483.44898215 -224.5674598 484.56780666 -229.484375 485.4296875 C-237.40332371 486.97363348 -243.40603141 488.41582538 -248.3203125 495.20605469 C-252.83104723 502.63301095 -256.14831655 510.65716566 -259.38438416 518.69989014 C-262.06469666 525.33376271 -265.29108197 531.51689601 -268.8125 537.75 C-269.29879883 538.62865723 -269.78509766 539.50731445 -270.28613281 540.41259766 C-272.07473041 543.63425925 -273.88741689 546.81774554 -275.82421875 549.953125 C-277.16603266 551.89561657 -277.16603266 551.89561657 -277 554 C-190.98901103 599.11711039 -94.33153742 627.52761141 421 683 C421.98018097 682.85558472 421.98018097 682.85558472 422.98016357 682.70825195 C490.62598472 672.65164368 557.05203248 650.73426713 615 614 C610.57309591 602.95355594 603.36267163 594.02579881 595.27734375 585.4296875 C593.39339782 583.41971431 591.62044521 581.37859172 589.875 579.25 C586.60265423 575.40658004 582.85185689 572.24701985 579 569 C578.08605469 568.19820312 577.17210937 567.39640625 576.23046875 566.5703125 C511.06598626 509.70770732 421.81286027 475.67834962 339 455 C338.34336365 454.8347583 337.68672729 454.6695166 337.01019287 454.49926758 C281.98735141 440.65962524 225.62282075 432.97545464 169 430 C167.40478516 429.91322998 167.40478516 429.91322998 165.77734375 429.82470703 C84.26787286 425.56995305 2.11877096 433.0255269 -78 448 Z M418 459 C421.08468748 461.05645832 423.82865003 462.13633749 427.30859375 463.3984375 C428.61203392 463.87593064 429.9153317 464.35381259 431.21850586 464.83203125 C431.9055661 465.08291504 432.59262634 465.33379883 433.30050659 465.59228516 C458.15118801 474.6943241 482.31198303 485.18785544 506 497 C507.03753418 497.51675293 508.07506836 498.03350586 509.14404297 498.56591797 C537.49865301 512.7804108 563.87039418 529.68312926 589 549 C589.61214355 549.46647949 590.22428711 549.93295898 590.85498047 550.41357422 C602.71924471 559.46462974 613.55917722 569.32188579 624 580 C636.87415055 576.94874602 648.61777927 571.88637376 660.3125 565.8125 C661.14330078 565.38445068 661.97410156 564.95640137 662.83007812 564.51538086 C663.99120117 563.8986853 663.99120117 563.8986853 665.17578125 563.26953125 C665.86583252 562.90448486 666.55588379 562.53943848 667.2668457 562.16333008 C669.3059702 560.95456273 669.3059702 560.95456273 671 558 C660.45252658 545.6496638 648.97591301 533.8032771 636 524 C635.36497559 523.505 634.72995117 523.01 634.07568359 522.5 C610.48971514 504.1294822 579.35406199 483.31829736 549.08984375 478.51953125 C547 478 547 478 543.9453125 476.62890625 C508.30223576 460.96519607 456.77809429 458.26058719 418 459 Z M-284 574 C-279.16998067 579.81478056 -273.98093733 585.16932653 -268.625 590.5 C-267.81289063 591.31597656 -267.00078125 592.13195312 -266.1640625 592.97265625 C-261.82805324 597.30171678 -257.41948848 601.47709593 -252.7734375 605.47167969 C-250.36036379 607.55122834 -248.02722286 609.71357639 -245.6875 611.875 C-241.22126486 615.94859909 -236.63078621 619.80827703 -231.92578125 623.6015625 C-229.27768561 625.77236453 -226.68853577 627.99294623 -224.10766602 630.2421875 C-217.09364484 636.3459771 -209.83649802 642.04609719 -202.41796875 647.6484375 C-198.68296054 650.46978103 -194.99277217 653.34413112 -191.31152344 656.23510742 C-182.44405312 663.19374213 -173.3985849 669.85814554 -164.22363281 676.40429688 C-162.04247865 677.96951686 -159.87480405 679.5516128 -157.7109375 681.140625 C-145.40361397 690.15995575 -132.74935511 698.62051247 -120 707 C-119.11489746 707.58313965 -118.22979492 708.1662793 -117.31787109 708.76708984 C-43.92583226 757.06423861 35.47982423 798.03442552 241.4375 840.75 C242.15989868 840.80916595 242.88229736 840.86833191 243.62658691 840.92929077 C265.33484002 842.67398189 287.039648 843.20605753 308.8125 843.1875 C310.02422882 843.18722809 311.23595764 843.18695618 312.48440552 843.18667603 C335.03524982 843.16360526 357.50187816 842.54986264 380 841 C380.74109009 840.94908203 381.48218018 840.89816406 382.24572754 840.84570312 C421.27369019 838.11402669 459.64017837 831.83369704 497 820 C497.85078125 819.73106934 498.7015625 819.46213867 499.578125 819.18505859 C534.54301885 807.94928787 567.1488447 790.67167643 596 768 C596.98355469 767.23042969 597.96710937 766.46085937 598.98046875 765.66796875 C604.2016745 761.48648363 609.19528997 757.08044615 614.125 752.5625 C614.69436279 752.04171875 615.26372559 751.5209375 615.8503418 750.984375 C618.81723423 748.30284183 618.81723423 748.30284183 621 745 C620.01572021 745.10022461 619.03144043 745.20044922 618.01733398 745.30371094 C533.94769044 753.80702927 449.43507099 758.32417905 365 753 C364.19139526 752.94908203 363.38279053 752.89816406 362.54968262 752.84570312 C279.7140706 747.5337345 196.63804443 732.9523989 68 682 C65.17048911 681.33267302 62.37131684 680.75085054 59.515625 680.22265625 C57.71942179 679.876861 55.92328224 679.53073502 54.12719727 679.18432617 C53.17209259 679.00243744 52.21698792 678.82054871 51.23294067 678.63314819 C-45.31682728 660.16280075 -139.83026898 631.59458941 -270.61108398 579.15039062 C-271.80419189 578.61478516 -272.9972998 578.07917969 -274.2265625 577.52734375 C-275.76691162 576.82726196 -275.76691162 576.82726196 -277.33837891 576.11303711 C-279.57126341 575.17928913 -281.63802324 574.49287004 -284 574 Z M616.9375 630.125 C561.11435031 663.90734332 496.98874469 682.96549647 433 694 C431.71689941 694.22139648 430.43379883 694.44279297 429.11181641 694.67089844 C343.83703277 709.07906806 255.03297807 708.56719581 169.37275696 697.609375 C165.89070882 697.17300896 162.50977239 696.90565354 159 697 C205.33122104 727.88748069 290.11983011 730.11593826 343.9375 735.25 C344.73426147 735.32731354 345.53102295 735.40462708 346.35192871 735.48428345 C376.27130448 738.34025216 406.31444674 739.41245956 436.35864258 739.48046875 C439.67060751 739.48929129 442.98154592 739.51739585 446.29321289 739.5625 C468.98720861 739.86454735 489.84917637 738.13818327 512 733 C513.37520322 732.68735207 514.75054846 732.37532832 516.12602234 732.06387329 C559.41411353 722.22996505 605.97562165 707.67892368 642 681 C642.79905762 680.40856201 642.79905762 680.40856201 643.61425781 679.80517578 C658.28709019 670.26342601 658.28709019 670.26342601 666.4375 656.0625 C665.4143012 648.90010843 660.36392834 645.27962798 654.90625 641.08203125 C636.88075185 627.26221369 636.88075185 627.26221369 616.9375 630.125 Z " fill="#373535" transform="translate(1078,266)"/>
<path d="M0 0 C18.08619387 15.24914385 21.8063525 38.35297744 23.78198242 60.68725586 C27.9893443 113.23606863 11.36297981 166.06951809 -12.66699219 212.20849609 C-13.69051834 214.17956391 -14.69513908 216.1595901 -15.69921875 218.140625 C-32.95871087 251.84398086 -55.923646 282.68165239 -81.39453125 310.609375 C-82.62889596 311.97781726 -83.85707962 313.35239234 -85.05175781 314.75561523 C-90.17699579 320.74984089 -95.69170798 326.33877784 -101.26513672 331.91137695 C-102.89843073 333.54685257 -104.52354095 335.19017083 -106.1484375 336.83398438 C-112.6643534 343.38440084 -119.4188909 349.36691382 -126.66015625 355.12109375 C-127.76209694 356.05574063 -128.85843649 356.99709554 -129.9453125 357.94921875 C-144.08955451 370.28315693 -159.46685405 380.67941941 -175.66015625 390.12109375 C-176.3867041 390.55019043 -177.11325195 390.97928711 -177.86181641 391.42138672 C-214.76199978 413.12109375 -214.76199978 413.12109375 -228.66015625 413.12109375 C-228.82016113 413.69504883 -228.98016602 414.26900391 -229.14501953 414.86035156 C-231.21235936 422.02997135 -233.79050499 428.93591741 -236.53515625 435.87109375 C-237.0149292 437.08482666 -237.49470215 438.29855957 -237.98901367 439.54907227 C-247.52981641 463.54824026 -258.13487492 487.01178153 -269.66015625 510.12109375 C-270.14726074 511.09933105 -270.63436523 512.07756836 -271.13623047 513.08544922 C-300.67910692 571.99541321 -343.4557167 623.45724919 -407.5078125 645.08251953 C-423.66060724 650.23676047 -440.56297354 654.1694898 -457.578125 654.359375 C-458.30916946 654.36921417 -459.04021393 654.37905334 -459.79341125 654.38919067 C-475.75080909 654.55974275 -491.20300149 654.60502057 -506.66015625 650.12109375 C-507.48290039 649.88503418 -508.30564453 649.64897461 -509.15332031 649.40576172 C-533.9679101 642.02420653 -555.48977607 628.28177306 -574.66015625 611.12109375 C-575.19157227 610.64607422 -575.72298828 610.17105469 -576.27050781 609.68164062 C-584.28396371 602.4864772 -592.07812124 595.16965735 -599.078125 586.96875 C-600.40096027 585.42380905 -601.7748612 583.92278593 -603.16015625 582.43359375 C-604.66015625 580.12109375 -604.66015625 580.12109375 -604.66015625 577.55859375 C-603.07876931 573.70396308 -601.35010645 571.85968709 -597.48828125 570.171875 C-591.93859092 568.26740052 -586.24250466 566.70763556 -580.66015625 569.12109375 C-577.22688702 572.12013837 -574.47250888 575.54553762 -571.66015625 579.12109375 C-548.55493554 606.67379826 -518.87023069 628.44372943 -483.66015625 637.12109375 C-482.7578125 637.34796875 -481.85546875 637.57484375 -480.92578125 637.80859375 C-447.16496839 644.83396521 -408.99584943 634.37447826 -380.35449219 616.25 C-370.32681999 609.56873829 -361.34507287 601.43441692 -352.66015625 593.12109375 C-352.16273926 592.6509082 -351.66532227 592.18072266 -351.15283203 591.69628906 C-343.70429268 584.62819229 -337.16669562 577.13441842 -331.01025391 568.91992188 C-329.68096248 567.14881532 -328.33375826 565.39254275 -326.984375 563.63671875 C-312.45630429 544.52361319 -301.36314113 523.52096321 -290.66015625 502.12109375 C-290.17337402 501.16074219 -289.6865918 500.20039062 -289.18505859 499.2109375 C-282.60806915 486.20369245 -276.94605589 472.84564779 -271.41015625 459.37109375 C-270.90816208 458.15078461 -270.90816208 458.15078461 -270.39602661 456.90582275 C-265.54287233 445.07475608 -261.01036997 433.14577295 -256.66015625 421.12109375 C-257.66091187 421.25741211 -257.66091187 421.25741211 -258.68188477 421.39648438 C-302.18044917 427.19480621 -345.62397668 423.74277029 -384.66015625 402.12109375 C-385.86934128 401.47701831 -387.07897574 400.83378591 -388.2890625 400.19140625 C-427.30528646 379.10371159 -453.69890058 341.00075172 -466.64453125 299.3190918 C-469.28873876 290.37744702 -471.14114908 281.31488466 -472.66015625 272.12109375 C-472.77875 271.42854492 -472.89734375 270.73599609 -473.01953125 270.02246094 C-483.83103136 204.02726235 -461.23628981 131.48593213 -423.05761719 77.87060547 C-419.38820245 72.84970756 -415.56955389 67.95681452 -411.66015625 63.12109375 C-411.1707959 62.51458984 -410.68143555 61.90808594 -410.17724609 61.28320312 C-399.07580612 47.6534149 -386.6962344 34.74036726 -372.66015625 24.12109375 C-372.10537598 23.69521973 -371.5505957 23.2693457 -370.97900391 22.83056641 C-361.93019862 15.90338059 -352.61594625 9.66927696 -342.66015625 4.12109375 C-342.04188965 3.77498047 -341.42362305 3.42886719 -340.78662109 3.07226562 C-326.74708293 -4.67723593 -326.74708293 -4.67723593 -319.66015625 -3.87890625 C-317.09290017 -3.11063817 -315.04504015 -2.14746151 -312.66015625 -0.87890625 C-312.28515625 1.30859375 -312.28515625 1.30859375 -312.66015625 4.12109375 C-316.82175702 8.10397546 -321.09588509 10.52792147 -326.28515625 12.93359375 C-340.59519309 19.84347587 -352.6762842 29.327651 -364.3359375 40.04296875 C-365.93233427 41.47033527 -367.57701619 42.84493055 -369.2578125 44.171875 C-371.3536865 45.87242968 -373.04352398 47.51149195 -374.78515625 49.55859375 C-375.68041016 50.61046875 -375.68041016 50.61046875 -376.59375 51.68359375 C-377.27566406 52.48796875 -377.95757812 53.29234375 -378.66015625 54.12109375 C-379.47613281 55.04921875 -380.29210937 55.97734375 -381.1328125 56.93359375 C-425.76299066 107.99790824 -450.66764894 179.38244128 -447.66015625 247.12109375 C-444.49236554 293.24185878 -428.67696475 336.36263214 -393.66870117 367.71435547 C-365.40588067 392.33200587 -330.93724491 405.86053308 -293.66015625 408.12109375 C-292.68433594 408.18167969 -291.70851563 408.24226563 -290.703125 408.3046875 C-277.10180578 408.66881731 -263.00177496 406.63769047 -249.66015625 404.12109375 C-249.51392822 403.53150879 -249.3677002 402.94192383 -249.21704102 402.33447266 C-247.07346603 394.07665298 -244.29305293 386.08670607 -241.48345947 378.03930664 C-235.4316679 360.66412225 -229.77923086 343.17965777 -224.28515625 325.62109375 C-164.05873071 133.48114539 -164.05873071 133.48114539 -93.93359375 37.578125 C-91.91831209 35.40009722 -89.96743189 33.18500089 -88.03515625 30.93359375 C-68.27764005 8.39268612 -30.16956168 -21.30919114 0 0 Z M-59.66015625 27.12109375 C-60.93439453 28.35666016 -60.93439453 28.35666016 -62.234375 29.6171875 C-127.99964171 94.0425846 -156.09967827 189.20364102 -201.27505493 330.86404419 C-206.57401049 347.75276399 -212.08223664 364.55241199 -217.95507812 381.25073242 C-218.2091745 381.97730545 -218.46327087 382.70387848 -218.72506714 383.45246887 C-219.3964137 385.36880132 -220.07415621 387.28288982 -220.75244141 389.19677734 C-221.80838094 392.08829209 -221.80838094 392.08829209 -221.66015625 395.12109375 C-187.60765731 389.4160027 -153.01031493 356.91839292 -128.66015625 334.12109375 C-127.08134382 332.67594523 -125.49771428 331.23620381 -123.91381836 329.79663086 C-117.10745499 323.60140783 -110.59851876 317.31307645 -104.59375 310.33203125 C-102.41419644 307.83985485 -100.16242345 305.42270707 -97.91015625 302.99609375 C-92.6525764 297.22228627 -87.82444597 291.17473574 -83.08105469 284.97460938 C-81.67143708 283.13580922 -80.24823207 281.30813169 -78.82421875 279.48046875 C-62.00841973 257.69546198 -47.53635148 233.94206664 -35.63427734 209.13427734 C-34.61718313 207.03228264 -33.57168352 204.94599124 -32.5234375 202.859375 C-20.5759882 178.76495846 -11.92619905 152.79595042 -5.84765625 126.62109375 C-5.65260498 125.78602295 -5.45755371 124.95095215 -5.2565918 124.09057617 C-2.25758837 110.54016059 -1.28107522 97.25563418 -1.34765625 83.43359375 C-1.34947906 82.64528168 -1.35130188 81.8569696 -1.35317993 81.04476929 C-1.40046568 68.87508096 -1.85920402 57.01565973 -4.66015625 45.12109375 C-4.83708008 44.36328613 -5.01400391 43.60547852 -5.19628906 42.82470703 C-8.19967854 30.47657464 -12.51629301 19.34649586 -22.66015625 11.12109375 C-36.72425899 3.03423467 -50.43110674 17.92863116 -59.66015625 27.12109375 Z " fill="#373535" transform="translate(688.66015625,143.87890625)"/>
<path d="M0 0 C0.99 0.99 0.99 0.99 2 2 C1.688435 9.60997521 -0.38991542 16.65389478 -2.5 23.9375 C-2.82097656 25.07251953 -3.14195313 26.20753906 -3.47265625 27.37695312 C-5.83836468 35.67672937 -5.83836468 35.67672937 -7 38 C-6.21858643 37.60844727 -6.21858643 37.60844727 -5.42138672 37.20898438 C19.31505203 24.90272733 44.40151355 14.89645804 72.375 14.75 C73.35210938 14.729375 74.32921875 14.70875 75.3359375 14.6875 C85.70406424 14.63235039 95.15104404 16.91789606 103 24 C111.49890526 34.07621301 112.41469948 46.49859772 111.42163086 59.12475586 C110.79897678 64.84762102 109.66856561 70.34759894 108.3125 75.9375 C108.01561279 77.18273437 107.71872559 78.42796875 107.4128418 79.7109375 C100.50701066 108.09547371 91.66590642 136.05273374 82.74389648 163.85623169 C71.3711803 194.72147997 71.3711803 194.72147997 72.1875 226.5 C74.12004033 230.23180202 75.36173817 231.93280578 79 234 C92.78154235 238.30673199 109.79553467 227.71967536 121.65966797 221.63623047 C131.80485432 216.31211147 141.66970177 210.66808662 151 204 C151.55929199 203.60377441 152.11858398 203.20754883 152.69482422 202.79931641 C167.01993842 192.62145674 180.58290764 181.62288513 193.34960938 169.54882812 C195.10973198 167.89702076 196.88842534 166.26720579 198.671875 164.640625 C204.23157333 159.55876454 209.67147363 154.5426027 214.50390625 148.74609375 C216.04235391 146.95056867 217.67293727 145.32780988 219.375 143.6875 C223.16297965 139.96731416 226.42875282 135.87870434 229.75390625 131.74609375 C231.73364937 129.3256426 233.77028882 126.99880859 235.875 124.6875 C239.83356616 120.30932582 243.42772577 115.6785009 246.96826172 110.9597168 C251.63797047 104.8597479 255.98956075 100.65051956 263.7578125 99.27734375 C268.65036699 98.67216715 272.72819849 98.26604703 277 101 C276.48688395 105.47373053 274.90923036 107.74099941 272 111.125 C271.18402344 112.08664062 270.36804687 113.04828125 269.52734375 114.0390625 C268.69332031 115.01617187 267.85929687 115.99328125 267 117 C265.51746395 118.83060973 264.03822391 120.66389432 262.5625 122.5 C258.64261444 127.2955319 254.53412684 131.88521275 250.33984375 136.44140625 C248.33094152 138.63811903 246.37485887 140.86549369 244.4375 143.125 C241.1587208 146.90761052 237.62372828 150.39522375 234.05859375 153.90625 C232.40015004 155.59301628 230.9005479 157.27279121 229.4375 159.125 C226.8871338 162.13312423 224.15587882 164.5420797 221.16015625 167.08984375 C218.89348004 169.09419215 216.79636736 171.2057715 214.6875 173.375 C210.64119204 177.46980823 206.35276274 181.10574983 201.859375 184.69921875 C199.00366655 186.99704973 196.22332687 189.36819499 193.4375 191.75 C175.76055633 206.48078639 156.27299256 219.15525497 136 230 C135.35740234 230.34659668 134.71480469 230.69319336 134.05273438 231.05029297 C112.37443741 242.6465478 82.95008097 255.09280153 57.99609375 248.6875 C52.45806656 246.78007772 48.00934639 243.00049288 45 238 C35.86401754 217.28574275 50.29249289 186.59497149 56.63452148 166.8359375 C82.33639648 103.38925811 82.33639648 103.38925811 82.25 38.94921875 C78.69625951 33.40760467 73.97887376 31.09648763 67.8046875 29.51171875 C41.95177334 24.79482216 15.86380404 40.91953933 -5.33984375 53.69775391 C-10.82115627 57 -10.82115627 57 -13 57 C-13.09411667 57.54952835 -13.18823334 58.0990567 -13.28520203 58.66523743 C-14.6106449 65.8478434 -16.59847995 72.79054923 -18.70475388 79.77527428 C-19.3507061 81.91739879 -19.99111647 84.06111704 -20.63027954 86.20527649 C-21.54630871 89.2764631 -22.46451461 92.34698568 -23.38449097 95.41699219 C-25.78893624 103.44429031 -28.1739421 111.47736407 -30.5546875 119.51171875 C-30.79120718 120.30975292 -31.02772686 121.10778709 -31.2714138 121.93000412 C-35.46263662 136.08287718 -39.52412859 150.2674472 -43.4375 164.5 C-43.68577545 165.40100433 -43.9340509 166.30200867 -44.18984985 167.23031616 C-44.89907561 169.80899072 -45.60482606 172.38858085 -46.30859375 174.96875 C-46.52898819 175.77488235 -46.74938263 176.58101471 -46.97645569 177.41157532 C-48.21940703 181.99584964 -49.40076823 186.59084287 -50.53564453 191.203125 C-50.79628189 192.24666138 -51.05691925 193.29019775 -51.32545471 194.36535645 C-51.82751041 196.38306341 -52.31909934 198.40341369 -52.79844666 200.42663574 C-54.41264454 206.88016205 -56.04861117 211.1789303 -61.9375 214.8125 C-67.26562188 216.85998788 -73.40267421 216.60278893 -79 216 C-79.66 215.34 -80.32 214.68 -81 214 C-80.64914853 207.11879786 -79.04944598 200.74793755 -77.21875 194.12890625 C-76.93370605 193.07926193 -76.64866211 192.02961761 -76.35498047 190.94816589 C-75.41108676 187.48409936 -74.45619787 184.02318891 -73.5 180.5625 C-73.1697583 179.35928101 -72.8395166 178.15606201 -72.49926758 176.91638184 C-65.36377419 150.92499306 -57.79345061 125.06399716 -50.13720703 99.22167969 C-47.94498465 91.81992304 -45.76596587 84.41431649 -43.58984375 77.0078125 C-43.23713409 75.80737305 -42.88442444 74.60693359 -42.52102661 73.37011719 C-41.82925269 71.01551232 -41.13751008 68.66089826 -40.44580078 66.30627441 C-38.85991578 60.90946553 -37.27187091 55.51329278 -35.68359375 50.1171875 C-35.4095018 49.18593048 -35.13540985 48.25467346 -34.85301208 47.29519653 C-34.23537721 45.19678714 -33.61769483 43.09839174 -33 41 C-36.212608 41.71022354 -38.7086682 42.88156174 -41.56616211 44.52636719 C-58.10144271 53.99805444 -82.55394891 64.77340032 -102 62 C-102.99 61.34 -103.98 60.68 -105 60 C-105.5625 56.625 -105.5625 56.625 -105 53 C-100.01455308 48.66050799 -94.38359426 47.59366723 -88.0625 46.125 C-64.56425631 40.31052507 -40.44486701 29.7316362 -25.3828125 9.8671875 C-19.21070524 1.86412019 -9.96723029 -1.10747003 0 0 Z " fill="#373535" transform="translate(1515,349)"/>
<path d="M0 0 C0.39445312 -0.93585938 0.39445312 -0.93585938 0.796875 -1.890625 C2.39525202 -4.69297433 4.37209798 -5.44923727 7.359375 -6.47265625 C12.83583688 -7.56632837 18.44475975 -7.2106622 24 -7 C25.1722616 -3.48321519 24.78381224 -2.61554969 23.62670898 0.81347656 C23.13124069 2.30532722 23.13124069 2.30532722 22.62576294 3.82731628 C22.25297211 4.92070816 21.88018127 6.01410004 21.49609375 7.140625 C21.11041229 8.29770462 20.72473083 9.45478424 20.32736206 10.64692688 C19.48311755 13.17958735 18.63600569 15.71108861 17.78433228 18.24124146 C15.46878592 25.12502751 13.18989736 32.02097034 10.9140625 38.91796875 C10.67497225 39.64190763 10.435882 40.36584652 10.18954659 41.11172295 C3.60874989 61.05919179 -2.56102128 81.13380663 -8.73149014 101.21114922 C-9.60994982 104.06919035 -10.48916344 106.92699944 -11.3682766 109.78483963 C-12.00511058 111.85740012 -12.63997302 113.93055764 -13.2747345 116.00375366 C-15.31950627 122.66594456 -17.41241484 129.30721426 -19.60791016 135.92138672 C-20.02847755 137.19628076 -20.44903539 138.47117796 -20.86958313 139.74607849 C-21.6482946 142.09436512 -22.43669798 144.43947235 -23.23722839 146.78041077 C-26.1600392 155.60174244 -28.50815087 164.32043069 -25.27734375 173.34375 C-23.26224676 175.95659747 -21.04398381 176.801722 -18 178 C1.32142653 180.4316081 18.35254508 170.57710013 33.875 160.1875 C43.63439713 153.70166537 51.18392576 151.39347147 63 152 C63.33 153.32 63.66 154.64 64 156 C41.40302383 171.21896218 17.87708641 183.44895648 -9 189 C-10.35158203 189.28810547 -10.35158203 189.28810547 -11.73046875 189.58203125 C-16.61066622 190.20590357 -21.45975607 190.22492222 -26.375 190.25 C-27.37789062 190.270625 -28.38078125 190.29125 -29.4140625 190.3125 C-35.89636908 190.34643878 -42.48337525 190.20265025 -47.5559082 185.58300781 C-51.26551256 181.33259702 -52.11171646 177.78630018 -52.5625 172.3125 C-52.64628906 171.31863281 -52.73007813 170.32476563 -52.81640625 169.30078125 C-52.87699219 168.54152344 -52.93757813 167.78226563 -53 167 C-53.74121094 167.47308594 -54.48242188 167.94617188 -55.24609375 168.43359375 C-88.16265719 189.10213359 -128.90656949 204.90894152 -168.28515625 195.96875 C-182.42379879 192.28170126 -194.11429741 186.3321838 -202.33984375 173.8671875 C-211.07070141 158.78848274 -209.93942982 138.81924146 -205.8347168 122.25756836 C-205.26271004 120.15732496 -204.64699074 118.07830281 -204 116 C-203.79101074 115.32710938 -203.58202148 114.65421875 -203.36669922 113.9609375 C-198.07293397 97.5284557 -189.60883907 82.56289365 -179 69 C-178.58556641 68.46987305 -178.17113281 67.93974609 -177.74414062 67.39355469 C-166.21980394 52.85859671 -152.93088788 39.97998493 -138 29 C-136.89425275 28.16443092 -135.7887832 27.32849423 -134.68359375 26.4921875 C-110.92923926 8.77255454 -83.2907015 -4.82196042 -54 -10 C-52.93652344 -10.19722656 -52.93652344 -10.19722656 -51.8515625 -10.3984375 C-32.73685185 -13.38259064 -16.49130265 -9.23249789 0 0 Z M-125 42 C-125.53625 42.44601562 -126.0725 42.89203125 -126.625 43.3515625 C-154.43157766 66.56508938 -179.73455986 96.95608129 -183.22753906 134.44189453 C-184.00040285 146.72751236 -183.39497754 160.20585954 -175 170 C-167.49804516 177.88577578 -158.98288711 181.4274343 -148.16796875 182.203125 C-120.48814285 182.63845647 -91.21016475 171.05073896 -69 155 C-68.03449219 154.31550781 -67.06898438 153.63101563 -66.07421875 152.92578125 C-53.36057406 143.66921402 -42.25586339 134.92458651 -37.828125 119.4609375 C-37.54778915 118.52629166 -37.26745331 117.59164581 -36.97862244 116.62867737 C-36.0565899 113.54768013 -35.15270933 110.46170931 -34.25 107.375 C-32.94660295 102.96510419 -31.63400679 98.55801558 -30.31640625 94.15234375 C-29.80482719 92.43788811 -29.80482719 92.43788811 -29.28291321 90.688797 C-26.70924505 82.1467 -23.91168277 73.69556035 -21.02734375 65.25390625 C-20.21193813 62.83761383 -19.39715244 60.42111212 -18.58300781 58.00439453 C-17.3959282 54.48154024 -16.19734898 50.96532501 -14.95690918 47.46087646 C-13.80497312 44.20209611 -12.70119141 40.93037339 -11.60546875 37.65234375 C-11.25024643 36.68978165 -10.89502411 35.72721954 -10.52903748 34.73548889 C-8.8334678 29.67554372 -8.8334678 29.67554372 -10.06655884 24.67532349 C-11.5903222 22.59317619 -13.15850422 20.80437826 -15 19 C-15.85388557 18.14612953 -15.85388557 18.14612953 -16.72502136 17.27500916 C-25.89679857 8.47894618 -37.54918796 5.59534188 -49.87548828 5.63208008 C-77.90945012 6.23041772 -104.23819293 24.69849411 -125 42 Z " fill="#373535" transform="translate(1339,365)"/>
<path d="M0 0 C0.25007812 -0.62390625 0.50015625 -1.2478125 0.7578125 -1.890625 C2.64111478 -5.08868547 4.83556372 -5.44239447 8.27734375 -6.4609375 C13.11259902 -7.41827642 18.11919373 -7.77666496 23 -7 C25 -4 25 -4 24.56439209 -1.59983826 C24.24117981 -0.64448685 23.91796753 0.31086456 23.58496094 1.29516602 C23.22182297 2.39117126 22.858685 3.48717651 22.48454285 4.61639404 C21.86570976 6.41696259 21.86570976 6.41696259 21.234375 8.25390625 C20.80840001 9.52594699 20.38377309 10.79843986 19.96040344 12.0713501 C19.04838214 14.80634342 18.1286874 17.53858355 17.20291138 20.26895142 C14.99447104 26.78533931 12.82742466 33.31551804 10.65942574 39.84544945 C10.16301445 41.34024328 9.66613728 42.83488248 9.16880608 44.3293705 C3.92424436 60.09326817 -1.04972535 75.93481154 -5.9375 91.8125 C-6.30500366 93.00545685 -6.67250732 94.1984137 -7.05114746 95.42752075 C-8.43790554 99.93066058 -9.82386235 104.4340438 -11.20726013 108.93821716 C-14.6871164 120.26043864 -18.25719192 131.55336616 -21.86328125 142.8359375 C-22.11013672 143.609375 -22.35699219 144.3828125 -22.61132812 145.1796875 C-23.09643442 146.69851613 -23.58354581 148.21670525 -24.07226562 149.734375 C-26.4698145 157.26769211 -28.22444354 163.91852154 -25.875 171.75 C-23.58549609 175.71847345 -22.33256668 176.58206909 -18 178 C-3.02705563 181.4719871 12.26114204 174.05561634 24.74609375 166.29248047 C28.57944606 163.81731557 32.40361955 161.33701463 36.16186523 158.7487793 C44.91533817 152.88756169 52.61729095 151.6650739 63 152 C63.33 153.32 63.66 154.64 64 156 C37.0118277 175.4402607 -0.80243119 195.10259344 -35.421875 190.69140625 C-41.31029211 189.57497817 -45.76940076 187.5382681 -49.8125 182.9375 C-51.92816582 179.4856242 -52.23648202 176.27128974 -52.5625 172.3125 C-52.64628906 171.31863281 -52.73007812 170.32476563 -52.81640625 169.30078125 C-52.87699219 168.54152344 -52.93757812 167.78226563 -53 167 C-53.91136719 167.60585938 -54.82273437 168.21171875 -55.76171875 168.8359375 C-87.64447449 189.62212078 -127.79442782 203.87332601 -166.25 196.8125 C-180.59082861 193.3796842 -193.22559366 187.14623061 -202 175 C-211.45803421 159.01256146 -210.16211501 139.65233646 -205.78344727 122.2043457 C-195.82981977 85.34623091 -171.1405233 53.91443882 -140.76660156 31.32226562 C-139.00178942 30.00133935 -137.26193514 28.65218163 -135.5234375 27.296875 C-98.00946289 -1.56121967 -44.88701334 -24.23633117 0 0 Z M-153.78515625 69.68383789 C-173.07462661 93.26822939 -185.49993598 121.07368196 -183 152 C-181.38646756 161.55559031 -177.61856021 169.26231576 -170.15625 175.5546875 C-158.18130341 183.84881035 -142.53481341 183.37100324 -128.75 180.9375 C-112.99023538 177.35345151 -98.14948004 171.77040091 -84 164 C-83.39075684 163.67386719 -82.78151367 163.34773437 -82.15380859 163.01171875 C-65.57117535 154.12516216 -44.31621294 141.01661028 -38.5552063 122.01316833 C-38.17789871 120.69760704 -38.17789871 120.69760704 -37.79296875 119.35546875 C-37.51017059 118.41248428 -37.22737244 117.46949982 -36.93600464 116.49794006 C-36.00822615 113.39778874 -35.09810414 110.29273459 -34.1875 107.1875 C-32.87395012 102.77791325 -31.55061476 98.37128683 -30.2265625 93.96484375 C-29.71649406 92.26142319 -29.71649406 92.26142319 -29.19612122 90.52359009 C-26.71053673 82.25710216 -24.11734071 74.02949315 -21.4609375 65.81640625 C-20.90630577 64.10030403 -20.90630577 64.10030403 -20.34046936 62.34953308 C-18.89392166 57.88162171 -17.44412075 53.41484599 -15.98202515 48.95199585 C-14.97295285 45.87093917 -13.97228139 42.787257 -12.97265625 39.703125 C-12.51909256 38.33451073 -12.51909256 38.33451073 -12.05636597 36.93824768 C-11.78390045 36.09398727 -11.51143494 35.24972687 -11.23071289 34.37988281 C-10.99171768 33.65053528 -10.75272247 32.92118774 -10.50648499 32.16973877 C-9.71026409 28.75879593 -9.38410745 26.02780783 -11.21484375 22.97265625 C-19.56919087 13.70899244 -30.55377677 6.80149773 -43.22265625 5.7265625 C-86.02845367 4.5943644 -127.49595093 38.50898948 -153.78515625 69.68383789 Z " fill="#373535" transform="translate(780,455)"/>
<path d="M0 0 C2.15172579 4.64469443 2.90577265 9.37974802 3.8125 14.375 C7.46823682 33.36141271 13.85940897 55.74333895 30.5 67.4375 C31.98193018 68.32264611 33.48121746 69.17969499 35 70 C35.58910156 70.33902344 36.17820312 70.67804688 36.78515625 71.02734375 C47.47835301 76.12717605 61.11948539 73.25350907 71.828125 69.609375 C87.67867435 63.73716591 100.84258576 53.5751288 113 42 C113.53383301 41.49339844 114.06766602 40.98679688 114.61767578 40.46484375 C122.32965286 33.09895878 129.28489878 25.48597153 135.6953125 16.9609375 C140.55230046 10.7209428 144.28692106 8.53135582 152 7 C159.69598965 6.34799483 159.69598965 6.34799483 163 8 C163.43229089 10.57917371 163.40999639 12.35345962 161.98779297 14.59619141 C160.52336583 16.38918597 159.00199356 18.10609492 157.4375 19.8125 C156.88247803 20.43632568 156.32745605 21.06015137 155.75561523 21.70288086 C154.65913615 22.93435562 153.55810792 24.16179788 152.45214844 25.38476562 C150.7810266 27.24356557 149.17220854 29.15046041 147.5625 31.0625 C122.68441531 59.18555225 88.25519881 83.26314383 49.82666016 86.1640625 C32.22071623 87.1095596 15.9105738 83.43562977 2.08203125 71.94921875 C-14.11772397 56.78284379 -23.06639419 31.498422 -24.16796875 9.671875 C-24 7 -24 7 -22.5 4.8125 C-15.32087116 -0.39236841 -8.57613436 -0.38592605 0 0 Z " fill="#373535" transform="translate(481,39)"/>
<path d="M0 0 C6.15234375 -0.09765625 6.15234375 -0.09765625 8 0 C9.96822886 1.96822886 9.66248381 5.34808709 10 8 C10.44730469 7.59007812 10.89460938 7.18015625 11.35546875 6.7578125 C11.96003906 6.21898437 12.56460937 5.68015625 13.1875 5.125 C13.77917969 4.59132813 14.37085938 4.05765625 14.98046875 3.5078125 C20.73500202 -0.78860886 27.08435255 -0.76840527 34 0 C38.19168715 2.05907439 40.31201323 4.29135738 43 8 C43.81404297 7.36771484 43.81404297 7.36771484 44.64453125 6.72265625 C45.35996094 6.17480469 46.07539062 5.62695312 46.8125 5.0625 C47.87404297 4.24458984 47.87404297 4.24458984 48.95703125 3.41015625 C52.8185634 0.74473922 56.30095976 0.80802165 60.875 0.75 C62.08929687 0.72421875 63.30359375 0.6984375 64.5546875 0.671875 C68.23976298 1.02283457 70.03304435 1.85928516 73 4 C73.556875 4.391875 74.11375 4.78375 74.6875 5.1875 C79.2398446 11.47407112 78.18337818 20.27155628 77.9765625 27.59375 C77.95153656 28.78101685 77.92651062 29.96828369 77.90072632 31.19152832 C77.81894823 34.96132769 77.72219491 38.73056976 77.625 42.5 C77.5667174 45.06508184 77.50941509 47.63018616 77.453125 50.1953125 C77.31343206 56.46385872 77.16031308 62.7319486 77 69 C73.7 69 70.4 69 67 69 C67.01047363 67.39036377 67.02094727 65.78072754 67.03173828 64.12231445 C67.06794334 58.14935531 67.09090246 52.17640588 67.10986328 46.20336914 C67.11991967 43.61839161 67.13356649 41.03342545 67.15087891 38.44848633 C67.17514271 34.73255608 67.18648684 31.01677627 67.1953125 27.30078125 C67.20563507 26.14540359 67.21595764 24.99002594 67.22659302 23.79963684 C67.22674408 22.71889389 67.22689514 21.63815094 67.22705078 20.5246582 C67.231492 19.57645706 67.23593323 18.62825592 67.24050903 17.65132141 C66.97271911 14.69926119 66.40391549 12.612111 65 10 C59.35219994 7.62197892 55.79167878 7.88923438 50.078125 9.8828125 C47.48073045 11.27915619 45.90251379 12.73941188 44 15 C43.38905879 17.52987166 43.38905879 17.52987166 43.45410156 20.31933594 C43.43438293 21.38013367 43.41466431 22.4409314 43.39434814 23.53387451 C43.39250519 25.24187225 43.39250519 25.24187225 43.390625 26.984375 C43.37408875 28.15510559 43.35755249 29.32583618 43.34051514 30.53204346 C43.29192919 34.27141511 43.27063967 38.01037976 43.25 41.75 C43.22184934 44.28517684 43.19192321 46.82033464 43.16015625 49.35546875 C43.08616671 55.57027902 43.0366563 61.78486192 43 68 C39.7 68 36.4 68 33 68 C33.01047363 66.39036377 33.02094727 64.78072754 33.03173828 63.12231445 C33.06794334 57.14935531 33.09090246 51.17640588 33.10986328 45.20336914 C33.11991967 42.61839161 33.13356649 40.03342545 33.15087891 37.44848633 C33.17514271 33.73255608 33.18648684 30.01677627 33.1953125 26.30078125 C33.20563507 25.14540359 33.21595764 23.99002594 33.22659302 22.79963684 C33.22674408 21.71889389 33.22689514 20.63815094 33.22705078 19.5246582 C33.23371262 18.10235649 33.23371262 18.10235649 33.24050903 16.65132141 C32.97643824 13.74026012 32.30695007 11.6087117 31 9 C27.28917653 7.14458826 23.04919172 7.5406887 19 8 C16.00223286 9.18191536 13.30620564 10.69379436 11 13 C9.46992567 24.30743822 9.67951291 35.92406388 9.4375 47.3125 C9.39420096 49.2285229 9.35058352 51.14453863 9.30664062 53.06054688 C9.20075994 57.70695685 9.09917504 62.35344226 9 67 C5.7 67 2.4 67 -1 67 C-1.22540764 44.6595986 -0.55795132 22.3314081 0 0 Z " fill="#373535" transform="translate(1333,1190)"/>
<path d="M0 0 C2.64 1.32 5.28 2.64 8 4 C7.01 6.31 6.02 8.62 5 11 C5.845625 10.95359375 6.69125 10.9071875 7.5625 10.859375 C15.85248982 10.5956026 21.48032801 10.9957292 27.78125 16.578125 C31.57019891 20.54579791 32.77731521 23.54422253 33 29 C33.845625 28.95359375 34.69125 28.9071875 35.5625 28.859375 C43.85071831 28.59565896 49.36827712 29.10975907 55.78125 34.49609375 C59.34377041 37.86536423 60.77941264 40.1985366 61.375 45.0625 C60.47976458 54.46247194 53.94080416 62.29372158 48.76171875 69.9140625 C45.84048463 74.2147392 43.00743077 78.56992884 40.1875 82.9375 C39.74390137 83.62271729 39.30030273 84.30793457 38.84326172 85.01391602 C35.85033174 89.64829332 32.91495212 94.31619004 30 99 C27.03 97.35 24.06 95.7 21 94 C24.69024061 87.43821454 28.55065915 81.05724874 32.75 74.8125 C33.16419189 74.19358887 33.57838379 73.57467773 34.00512695 72.93701172 C35.82771807 70.21780943 37.65536075 67.50271528 39.50634766 64.80273438 C41.03851435 62.56479251 42.55132201 60.31465067 44.0625 58.0625 C44.53977539 57.37712158 45.01705078 56.69174316 45.50878906 55.9855957 C48.64477353 51.270754 49.91513192 47.70434736 50 42 C47.02272188 38.0870059 43.70457219 35.40949508 38.78125 34.6640625 C38.0284375 34.65117188 37.275625 34.63828125 36.5 34.625 C35.7471875 34.59664062 34.994375 34.56828125 34.21875 34.5390625 C29.99390946 35.41675825 28.26391535 38.60105819 25.984375 42.046875 C25.23561303 43.27884569 24.49110774 44.51340969 23.75 45.75 C19.15569205 53.24990217 14.36298168 60.6092719 9.5 67.9375 C8.79327148 69.01032227 8.08654297 70.08314453 7.35839844 71.18847656 C6.36114746 72.68652832 6.36114746 72.68652832 5.34375 74.21484375 C4.74755859 75.11323975 4.15136719 76.01163574 3.53710938 76.93725586 C2 79 2 79 0 80 C-2.31 78.35 -4.62 76.7 -7 75 C-2.93804793 67.39892137 1.6779287 60.24156302 6.4375 53.0625 C12.54565961 43.83768484 12.54565961 43.83768484 18.47265625 34.49609375 C18.9406665 33.74384521 19.40867676 32.99159668 19.89086914 32.21655273 C21.11365665 29.77286183 21.68635924 27.71164519 22 25 C20.69384246 21.77302254 19.35283617 20.26236536 16.5625 18.1875 C11.38370542 16.46123514 6.40984905 16.76364737 1 17 C0.75894531 17.68964844 0.51789062 18.37929687 0.26953125 19.08984375 C-1.22864854 22.5241328 -3.19903532 25.48920129 -5.3125 28.5625 C-6.20832123 29.88324055 -7.10277775 31.20490744 -7.99609375 32.52734375 C-8.71708252 33.5944458 -8.71708252 33.5944458 -9.45263672 34.68310547 C-12.87953757 39.81426499 -16.2013489 45.01554399 -19.5324707 50.20922852 C-22.17990826 54.31028916 -24.84307176 58.26353904 -28 62 C-30.64 60.35 -33.28 58.7 -36 57 C-35.61070312 56.3915625 -35.22140625 55.783125 -34.8203125 55.15625 C-31.78162089 50.39516636 -28.7646592 45.62420481 -25.79248047 40.82128906 C-19.93288425 31.36653281 -13.8402787 22.06774829 -7.71337891 12.78491211 C-6.64869385 11.16661499 -6.64869385 11.16661499 -5.5625 9.515625 C-4.92441406 8.54915039 -4.28632812 7.58267578 -3.62890625 6.58691406 C-1.83070339 3.82498301 -1.83070339 3.82498301 0 0 Z " fill="#373535" transform="translate(898,1019)"/>
<path d="M0 0 C1.31602523 0.61754259 2.62773556 1.24428742 3.9375 1.875 C4.66839844 2.22304687 5.39929688 2.57109375 6.15234375 2.9296875 C8 4 8 4 9 6 C7.8918457 8.48681641 7.8918457 8.48681641 6.17578125 11.6015625 C5.55896484 12.73207031 4.94214844 13.86257813 4.30664062 15.02734375 C3.64225058 16.22674176 2.97753462 17.42595928 2.3125 18.625 C1.03521819 20.94913443 -0.23802467 23.27545729 -1.51171875 25.6015625 C-2.1154834 26.70145508 -2.71924805 27.80134766 -3.34130859 28.93457031 C-5.31595691 32.58392036 -7.18144767 36.27081674 -9 40 C-8.40574219 39.84144531 -7.81148437 39.68289063 -7.19921875 39.51953125 C-0.2320479 37.87364542 4.975684 39.58799802 11 43 C17.28003643 46.9481565 20.21936356 51.83505814 22 59 C23.6927726 71.38801765 18.26068191 83.04520019 10.92578125 92.7421875 C5.42627082 99.21107063 -1.31784222 105.25208876 -10.12890625 106.23828125 C-18.09595244 106.48125698 -24.96525508 104.55117579 -31.375 99.6875 C-34.37105423 96.62011114 -36.06008892 93.8052102 -38 90 C-38.721875 90.391875 -39.44375 90.78375 -40.1875 91.1875 C-43 92 -43 92 -45.8125 90.625 C-46.534375 90.08875 -47.25625 89.5525 -48 89 C-46.65782029 85.48189807 -45.1116391 82.2010655 -43.3125 78.89453125 C-42.51996826 77.43406372 -42.51996826 77.43406372 -41.71142578 75.9440918 C-41.14665527 74.9106665 -40.58188477 73.87724121 -40 72.8125 C-39.41331543 71.73460205 -38.82663086 70.6567041 -38.22216797 69.54614258 C-33.67464305 61.20364555 -29.07853604 52.88900215 -24.44726562 44.59277344 C-21.4192977 39.16817504 -18.39542399 33.74130176 -15.375 28.3125 C-14.88847458 27.43812286 -14.88847458 27.43812286 -14.39212036 26.54608154 C-9.4987507 17.74695817 -4.67514024 8.91712052 0 0 Z M-17.21582031 51.03686523 C-17.83038086 52.19903564 -18.44494141 53.36120605 -19.078125 54.55859375 C-19.41624207 55.18476089 -19.75435913 55.81092804 -20.10272217 56.45606995 C-21.16965603 58.44095572 -22.21017577 60.43830263 -23.25 62.4375 C-23.96178949 63.77502247 -24.6753173 65.11162138 -25.390625 66.44726562 C-26.70546724 68.9040019 -28.00758968 71.36589902 -29.30175781 73.83374023 C-30.37408465 75.8330224 -31.49684863 77.80676768 -32.68652344 79.73852539 C-34.48991207 82.84350474 -34.63787092 84.45627265 -34 88 C-31.03944152 93.15854887 -26.85222268 96.2639467 -21.3671875 98.40625 C-16.08287707 99.7316876 -11.76673713 98.86534064 -6.9375 96.5 C2.430363 88.52735064 10.45536393 77.29783499 13 65 C13.3630359 59.37294357 13.24590017 55.81649702 10 51 C5.02962526 45.98262408 1.53294891 43.99889333 -5.671875 43.57421875 C-10.77936991 44.50830758 -14.23254952 46.94818019 -17.21582031 51.03686523 Z " fill="#373535" transform="translate(996,1040)"/>
<path d="M0 0 C3.13346213 7.26512759 6.26303985 14.53191042 9.38763428 21.80085564 C10.83853737 25.17584669 12.2907857 28.55024561 13.74609375 31.92333984 C15.14976721 35.17689123 16.54992589 38.4319339 17.94763184 41.68805313 C18.48224257 42.93177492 19.01813037 44.17494855 19.55529785 45.41756821 C20.30584083 47.15437612 21.05147897 48.89330115 21.796875 50.63232422 C22.22323242 51.62271698 22.64958984 52.61310974 23.08886719 53.6335144 C24 56 24 56 24 58 C24.66 58 25.32 58 26 58 C27.66660463 54.00471494 29.02673088 49.94240679 30.3125 45.8125 C30.5305127 45.12776611 30.74852539 44.44303223 30.97314453 43.73754883 C32.18568285 39.86849684 33.26370139 36.002269 34.19140625 32.0546875 C34.39016357 31.24281982 34.5889209 30.43095215 34.79370117 29.59448242 C35.17402532 28.0196753 35.53069647 26.43892015 35.8605957 24.8527832 C37.16075117 19.57130734 37.16075117 19.57130734 39.72363281 17.82666016 C41.6640625 16.98828125 41.6640625 16.98828125 45 16 C44.41975875 18.52158031 43.83635415 21.0423385 43.25 23.5625 C42.98473511 24.70658325 42.98473511 24.70658325 42.71411133 25.8737793 C41.81319482 29.71289862 40.8735878 33.53096101 39.80859375 37.328125 C39.62071289 38.00029053 39.43283203 38.67245605 39.23925781 39.36499023 C38.71343066 41.22097396 38.17538692 43.07348365 37.63671875 44.92578125 C36.99626939 48.0180122 36.84478131 49.14651997 38 52 C39.93350619 53.7692057 39.93350619 53.7692057 42.41796875 55.3203125 C43.33690918 55.93382568 44.25584961 56.54733887 45.20263672 57.17944336 C46.1876416 57.82147705 47.17264648 58.46351074 48.1875 59.125 C50.19483709 60.46099834 52.20134679 61.79824066 54.20703125 63.13671875 C55.19268066 63.79075684 56.17833008 64.44479492 57.19384766 65.11865234 C60.97377454 67.65285424 64.6844105 70.27545165 68.375 72.9375 C68.95660889 73.35596191 69.53821777 73.77442383 70.13745117 74.20556641 C71.42655723 75.13484286 72.71357643 76.06701362 74 77 C73.01 77.66 72.02 78.32 71 79 C70.46503906 79.38542969 69.93007812 79.77085938 69.37890625 80.16796875 C67.10195912 81.44599714 65.62747204 81.94436948 63 82 C59.26176618 79.99200134 56.19338034 77.26193278 52.94873047 74.54736328 C49.04733238 71.44951048 44.87726624 68.72249415 40.75 65.9375 C39.07808973 64.80083312 37.40621196 63.66411845 35.734375 62.52734375 C34.48984318 61.68451202 33.24515634 60.84190882 32 60 C30.68 61.32 29.36 62.64 28 64 C31.06961976 72.17659777 34.33595747 80.2116518 37.86328125 88.19921875 C39 91 39 91 39 93 C36.03 93.99 33.06 94.98 30 96 C23.99645223 83.54422234 18.59288818 70.84250513 13.19458008 58.11547852 C11.70337426 54.59992395 10.20849035 51.08595285 8.71289062 47.57226562 C2.40671869 32.74322805 -3.82538919 17.88427848 -10 3 C-8.70990357 2.49596232 -7.41786211 1.99690074 -6.125 1.5 C-5.04605469 1.08234375 -5.04605469 1.08234375 -3.9453125 0.65625 C-2 0 -2 0 0 0 Z " fill="#373535" transform="translate(1571,1129)"/>
<path d="M0 0 C5.80806629 4.79051137 8.40687193 10.99136294 9.28125 18.375 C9.78568203 31.49023277 4.7004853 45.21195404 -4 55 C-6.25390625 56.765625 -6.25390625 56.765625 -8.5625 58.25 C-9.70912109 59.00023437 -9.70912109 59.00023437 -10.87890625 59.765625 C-16.73282403 63.17232485 -23.45628955 62.69628324 -30 62 C-37.89916756 59.49921214 -44.61306747 55.14518352 -49 48 C-53.40756661 37.22760838 -51.46337668 25.98957918 -47.55078125 15.453125 C-43.42688598 6.27044636 -37.33881374 -2.11562406 -27.75 -5.9375 C-17.59123762 -8.7908918 -8.61146464 -5.57730824 0 0 Z M-32.2265625 8.4296875 C-39.2344602 18.58650839 -43.34859013 31.63089988 -42 44 C-40.01945576 49.62891522 -36.88726292 52.39596505 -31.75 55.25 C-26.43936945 56.69835379 -21.83977932 56.8657785 -16.8125 54.5 C-6.39498372 45.23998552 -1.53180916 31.64267536 0 18 C-0.20971615 13.07822417 -1.23754773 9.32723173 -3.6875 5.0625 C-8.54715604 0.72821218 -13.57722657 -0.55277383 -19.9375 -0.2734375 C-25.41424123 0.45264562 -28.81089665 4.38756765 -32.2265625 8.4296875 Z " fill="#373535" transform="translate(1156,1152)"/>
<path d="M0 0 C0.99528645 2.98585935 1.30320413 5.442525 1.57250977 8.56958008 C1.67253799 9.71119095 1.77256622 10.85280182 1.87562561 12.02900696 C1.97983322 13.26337997 2.08404083 14.49775299 2.19140625 15.76953125 C2.30097153 17.03842697 2.4105368 18.30732269 2.52342224 19.6146698 C2.75460878 22.30197984 2.98435618 24.9893662 3.21166992 27.67700195 C3.50218496 31.11033378 3.79820338 34.54316311 4.09605503 37.97586536 C4.38050157 41.26102641 4.6608258 44.54653809 4.94140625 47.83203125 C5.04763809 49.06033157 5.15386993 50.2886319 5.26332092 51.55415344 C5.36019699 52.70522079 5.45707306 53.85628815 5.55688477 55.04223633 C5.64269302 56.05022781 5.72850128 57.0582193 5.81690979 58.09675598 C6.00457182 61.07249491 6.0314172 64.01917451 6 67 C3.36 67.33 0.72 67.66 -2 68 C-2.66 66.35 -3.32 64.7 -4 63 C-4.80050781 63.61488281 -4.80050781 63.61488281 -5.6171875 64.2421875 C-13.27663934 69.78137586 -20.53894736 71.91895781 -29.96484375 70.47265625 C-35.53207007 69.17969198 -38.96854668 66.80851217 -42 62 C-44.70312843 55.59360072 -45.63203305 49.30456075 -46.16796875 42.41796875 C-46.25250809 41.44136795 -46.33704742 40.46476715 -46.42414856 39.45857239 C-46.68890761 36.36898529 -46.9382323 33.27837121 -47.1875 30.1875 C-47.36556385 28.09431808 -47.54459146 26.0012179 -47.72460938 23.90820312 C-48.04884511 20.08663318 -48.37163841 16.26499111 -48.68041992 12.44213867 C-48.74243088 11.6787468 -48.80444183 10.91535492 -48.86833191 10.12882996 C-48.99447602 8.08931253 -49 6.04341471 -49 4 C-45.7 3.67 -42.4 3.34 -39 3 C-38.86424561 4.48322754 -38.72849121 5.96645508 -38.58862305 7.49462891 C-38.0807461 13.00850331 -37.55702844 18.52077865 -37.02856445 24.03271484 C-36.80224656 26.4164239 -36.5802001 28.80054259 -36.36254883 31.18505859 C-36.04856278 34.616733 -35.71913583 38.04663048 -35.38671875 41.4765625 C-35.24589119 43.07064438 -35.24589119 43.07064438 -35.10221863 44.69692993 C-34.4790632 50.93979431 -33.78879038 56.22878603 -29.140625 60.84765625 C-25.00403831 63.07446843 -20.55086804 62.58376652 -16 62 C-12.05675436 60.64748579 -8.94858375 58.94858375 -6 56 C-5.96344019 52.89546296 -6.05433709 49.90469768 -6.25 46.8125 C-6.3008374 45.88646973 -6.3516748 44.96043945 -6.40405273 44.00634766 C-6.87020933 36.01681154 -7.55103374 28.0452371 -8.33886719 20.08129883 C-8.94710875 13.702222 -9.10432995 7.40663201 -9 1 C-5.8035914 -0.06546953 -3.34252724 -0.07427838 0 0 Z " fill="#373535" transform="translate(1476,1187)"/>
<path d="M0 0 C0.495 1.485 0.495 1.485 1 3 C-0.18491035 5.23274882 -1.40004621 7.23013467 -2.8125 9.3125 C-3.22556396 9.93568115 -3.63862793 10.5588623 -4.06420898 11.20092773 C-5.36174019 13.14416721 -6.6770057 15.07402179 -8 17 C-8.38091797 17.55623047 -8.76183594 18.11246094 -9.15429688 18.68554688 C-17.02017871 30.09038433 -25.55099816 41.02561079 -34 52 C-34.64018066 52.8357959 -35.28036133 53.6715918 -35.93994141 54.53271484 C-36.55401855 55.33016113 -37.1680957 56.12760742 -37.80078125 56.94921875 C-38.34516846 57.65780029 -38.88955566 58.36638184 -39.45043945 59.09643555 C-43.63370593 64.23538761 -47.51823748 65.72140575 -54 67 C-57.68465929 67.22275018 -61.31478085 67.18916524 -65 67 C-65 62.67480917 -64.712709 62.13102675 -62.2109375 58.90234375 C-61.60612549 58.11069824 -61.00131348 57.31905273 -60.37817383 56.50341797 C-59.71712646 55.65666504 -59.0560791 54.80991211 -58.375 53.9375 C-56.99021365 52.12681564 -55.60611497 50.31560519 -54.22265625 48.50390625 C-53.51641113 47.58496582 -52.81016602 46.66602539 -52.08251953 45.71923828 C-48.95333033 41.6333169 -45.87339209 37.51224975 -42.8125 33.375 C-42.24063965 32.60462402 -41.6687793 31.83424805 -41.07958984 31.04052734 C-36.48399878 24.79235389 -32.18195112 18.36857537 -28.08129883 11.78466797 C-24.81961228 6.69898506 -21.5973049 3.33094003 -15.76171875 1.171875 C-10.41319531 0.08403972 -5.45956655 -0.17331957 0 0 Z " fill="#373535" transform="translate(1414,238)"/>
<path d="M0 0 C9.29088145 0.12003723 16.91069591 3.19573431 24 9.25 C26.68079332 12.38479865 27.86822809 15.39348256 28.5 19.5 C27.00250283 30.73122877 20.82702799 41.04971917 15.8371582 51.08691406 C14.89320297 52.99053728 13.95621109 54.89747666 13.01953125 56.8046875 C12.46370361 57.92343262 11.90787598 59.04217773 11.33520508 60.19482422 C10.12872147 62.95546343 9.33422816 65.26457833 9 68.25 C10.39195915 71.0339183 12.15575779 71.22898997 15 72.25 C14.505 74.23 14.505 74.23 14 76.25 C4.3386745 75.63958946 4.3386745 75.63958946 0 72.25 C-1.4783226 69.29335481 -1.06032783 66.50770263 -1 63.25 C-2.2684375 63.745 -2.2684375 63.745 -3.5625 64.25 C-11.22658292 66.4795514 -17.10144973 64.8540503 -24 61.25 C-28.00393657 58.49729361 -31.1852839 55.84615012 -33 51.25 C-33.70077817 46.31195847 -33.55558401 42.36116802 -31.3125 37.875 C-26.83844622 32.79634436 -22.8480213 29.9520842 -16 29.25 C-5.83839444 29.13481807 3.35420325 31.34545336 13 34.25 C13.29390625 33.35152344 13.5878125 32.45304687 13.890625 31.52734375 C14.52587251 29.65067946 15.1871256 27.78139309 15.921875 25.94140625 C17.39893301 22.14425239 18.03093646 19.62123754 17.6875 15.5 C15.31124274 10.92350454 12.87850432 8.93248562 8 7.25 C2.989006 6.56599172 -1.94712254 6.32237194 -7 6.25 C-5.99651101 0.65913277 -5.723276 0.09538793 0 0 Z M-21.25 40.5625 C-23.27328977 43.66969501 -23.92435755 45.5435199 -24 49.25 C-22.23652296 54.43669719 -19.71715341 56.59660121 -15 59.25 C-9.65473547 61.03175484 -4.87079489 60.72916601 0.28808594 58.40917969 C3.57699973 56.18217417 4.90485824 52.77940814 6.5 49.25 C6.85835937 48.52554687 7.21671875 47.80109375 7.5859375 47.0546875 C9.74661678 42.79928433 9.74661678 42.79928433 9 38.25 C-1.29334996 34.47732422 -13.08319256 32.1688368 -21.25 40.5625 Z " fill="#373535" transform="translate(1044,1107.75)"/>
<path d="M0 0 C3.95281501 3.22678776 6.6672777 6.29366056 7.30078125 11.4465332 C7.33784021 20.27505875 5.78302202 28.59050177 4 37.1875 C1.41844394 49.48197129 1.41844394 49.48197129 1 62 C3.31 62.33 5.62 62.66 8 63 C7.67 64.65 7.34 66.3 7 68 C-2.58048912 69.54456687 -2.58048912 69.54456687 -7 67 C-9.76223278 64.23776722 -9.57856291 61.79293383 -10 58 C-10.721875 58.61875 -11.44375 59.2375 -12.1875 59.875 C-17.60002163 63.96446079 -22.34672895 64.81886413 -29 64 C-36.14866265 62.27648681 -40.94038016 60.22475041 -45 54 C-47.07766834 49.84466331 -46.70432162 44.34175723 -45.38671875 39.9609375 C-42.38979818 33.96709637 -37.06795068 31.1052489 -30.953125 28.90234375 C-25.91654404 27.5381714 -20.74974005 27.53699579 -15.5625 27.375 C-14.54478516 27.33632812 -13.52707031 27.29765625 -12.47851562 27.2578125 C-9.98585064 27.16419128 -7.4931805 27.07846007 -5 27 C-4.11398135 22.8831368 -3.86604112 19.09463067 -3.875 14.875 C-3.87242188 13.65554688 -3.86984375 12.43609375 -3.8671875 11.1796875 C-3.85426467 7.97660399 -3.85426467 7.97660399 -5 5 C-13.05141872 0.97429064 -22.67227958 2.81567989 -31 5 C-31 3.02 -31 1.04 -31 -1 C-19.85664326 -4.9831573 -10.80168976 -5.3834228 0 0 Z M-33.75 38.5 C-36.28546455 41.54255746 -36.39089588 45.0893866 -36.35546875 48.9296875 C-35.71438682 52.66346135 -33.70421041 54.42156682 -31 57 C-25.15323045 58.94892318 -19.06047738 58.99344445 -13.5 56.3125 C-7.85730817 51.09301005 -6.90641705 45.4219561 -6 38 C-5.97024284 36.333599 -5.96075967 34.66620466 -6 33 C-14.03783747 28.98108127 -27.39271813 33.05090126 -33.75 38.5 Z " fill="#373535" transform="translate(1272,1183)"/>
<path d="M0 0 C6.4699861 3.66730767 10.35529765 8.71893473 14.3125 14.875 C15.42804354 16.55751839 16.54393552 18.2398058 17.66015625 19.921875 C18.2133252 20.76556641 18.76649414 21.60925781 19.33642578 22.47851562 C21.92167195 26.39698091 24.58472688 30.26073073 27.25 34.125 C27.71575439 34.80546387 28.18150879 35.48592773 28.66137695 36.18701172 C30.65600725 39.23333013 30.65600725 39.23333013 33 42 C35.41583753 42.33374277 35.41583753 42.33374277 38 42 C39.81476003 40.60414215 39.81476003 40.60414215 41 39 C41.99 40.32 42.98 41.64 44 43 C38.36295614 50.52176978 38.36295614 50.52176978 33.4375 52.25 C29.25167338 51.94557625 27.23297992 50.60215457 24 48 C24.103125 48.825 24.20625 49.65 24.3125 50.5 C23.78522946 56.40543006 20.50144873 60.90663716 16.125 64.8125 C10.02566859 69.08203199 4.41544656 71.20433347 -3 70 C-7.83805465 67.6266147 -10.55934539 64.7909146 -13 60 C-14.80361143 53.93753835 -13.93343696 49.17123383 -11.359375 43.4765625 C-7.31862561 36.11496734 -1.41103839 29.40885308 5 24 C5.66 24 6.32 24 7 24 C5.94890486 22.24312628 4.88356877 20.49476874 3.8125 18.75 C3.22082031 17.77546875 2.62914062 16.8009375 2.01953125 15.796875 C-0.08462542 12.88280115 -2.01470169 10.99019887 -5 9 C-9.82844267 8.38686442 -11.9328423 8.44589889 -16.25 10.6875 C-21.4415558 15.05312647 -24.17777322 19.95022663 -27 26 C-29.0625 24.3125 -29.0625 24.3125 -31 22 C-31.2875518 16.82406752 -27.22311241 12.69390411 -24 9 C-17.60760559 2.47595444 -9.38792436 -2.38402096 0 0 Z M9 27 C-0.52219839 35.95012603 -0.52219839 35.95012603 -6 47.5625 C-6 51.85459327 -5.16641816 54.29612379 -3 58 C-0.03794749 60.56711218 2.03252523 61.81071146 5.875 62.5625 C11.04005448 61.63279019 15.21420675 59.38438316 18.3984375 55.1328125 C20.85257905 50.65966089 21.55545519 47.16246592 21 42 C19.67530314 39.29878266 17.96225433 36.99875284 16.125 34.625 C15.66480469 33.99722656 15.20460938 33.36945313 14.73046875 32.72265625 C12.32106006 29.3530489 12.32106006 29.3530489 9 27 Z " fill="#373535" transform="translate(1664,1122)"/>
<path d="M0 0 C2.17250343 3.25875514 2.17062232 4.22612545 1.5032959 7.93865967 C0.50732859 12.01782579 -0.96060973 15.92002475 -2.421875 19.8515625 C-2.7637384 20.78745209 -3.10560181 21.72334167 -3.45782471 22.68759155 C-4.5488229 25.6691177 -5.64936818 28.64701856 -6.75 31.625 C-7.4745633 33.60264304 -8.19852724 35.58050578 -8.921875 37.55859375 C-12.52963285 47.40551242 -16.18358567 57.23174145 -20 67 C-19.17798096 66.81824219 -18.35596191 66.63648438 -17.5090332 66.44921875 C-14.44417469 65.77414931 -11.37833631 65.10377732 -8.31176758 64.43652344 C-6.98746569 64.14737314 -5.66356448 63.85638115 -4.34008789 63.56347656 C-2.43223006 63.14158096 -0.5227677 62.72696218 1.38671875 62.3125 C2.53358154 62.06113281 3.68044434 61.80976562 4.86206055 61.55078125 C7.66244242 61.05924919 10.16743108 60.88864594 13 61 C13.495 63.475 13.495 63.475 14 66 C9.36687994 67.65747217 4.71618117 68.77381856 -0.1015625 69.7265625 C-0.86044769 69.87910492 -1.61933289 70.03164734 -2.4012146 70.18881226 C-3.99594002 70.50829895 -5.59105137 70.82586468 -7.18652344 71.14160156 C-9.62553812 71.62510668 -12.06279626 72.11683221 -14.5 72.609375 C-16.05458904 72.91976438 -17.60927341 73.22967674 -19.1640625 73.5390625 C-20.25323471 73.75932602 -20.25323471 73.75932602 -21.3644104 73.98403931 C-24.67352735 74.63361015 -27.60918484 75 -31 75 C-31.51969378 67.83712574 -29.71719321 62.46473741 -27.16796875 55.81640625 C-26.77555496 54.76146469 -26.38314117 53.70652313 -25.97883606 52.61961365 C-24.72723426 49.26253524 -23.45793662 45.91249024 -22.1875 42.5625 C-20.93179602 39.21467981 -19.679729 35.86551784 -18.42829895 32.51609802 C-17.6503107 30.43790479 -16.86914902 28.36089578 -16.08427429 26.28529358 C-13.92447181 20.56106057 -11.8952009 14.81741671 -10 9 C-10.76666992 9.15146484 -11.53333984 9.30292969 -12.32324219 9.45898438 C-15.79807512 10.14321382 -19.27401106 10.82166882 -22.75 11.5 C-23.9565625 11.73847656 -25.163125 11.97695312 -26.40625 12.22265625 C-27.56640625 12.44824219 -28.7265625 12.67382812 -29.921875 12.90625 C-30.99018555 13.11572266 -32.05849609 13.32519531 -33.15917969 13.54101562 C-36 14 -36 14 -40 14 C-40.33 12.02 -40.66 10.04 -41 8 C-27.47 5.36 -13.94 2.72 0 0 Z " fill="#373535" transform="translate(1533,1176)"/>
<path d="M0 0 C5.445 1.485 5.445 1.485 11 3 C11.66 22.14 12.32 41.28 13 61 C22.36615782 47.07545793 22.36615782 47.07545793 31.72753906 33.14770508 C32.9067287 31.39653107 34.08607984 29.64546581 35.265625 27.89453125 C35.87132324 26.99166382 36.47702148 26.08879639 37.10107422 25.15856934 C39.92415223 20.97208615 42.74957757 16.87306828 46 13 C47.98 13.66 49.96 14.32 52 15 C50.68890816 17.72864147 49.24887932 20.25010143 47.56640625 22.765625 C47.08824463 23.48226318 46.61008301 24.19890137 46.11743164 24.93725586 C45.6043042 25.70046143 45.09117676 26.46366699 44.5625 27.25 C44.02681396 28.04994385 43.49112793 28.8498877 42.93920898 29.67407227 C39.07690397 35.42913992 35.1800909 41.1600588 31.23242188 46.85693359 C28.64002065 50.59913004 26.08486308 54.36249323 23.5625 58.15234375 C22.98040771 59.02060791 22.39831543 59.88887207 21.79858398 60.78344727 C20.66320376 62.47829484 19.53480128 64.17784307 18.41430664 65.88256836 C17.89731201 66.65093018 17.38031738 67.41929199 16.84765625 68.2109375 C16.39398682 68.89462402 15.94031738 69.57831055 15.47290039 70.28271484 C13.7768316 72.26019667 12.44880517 73.12743384 10 74 C6.8125 73.3125 6.8125 73.3125 4 72 C2.99478294 68.98434881 2.77410022 66.67128101 2.61108398 63.50976562 C2.55109726 62.38429321 2.49111053 61.2588208 2.42930603 60.09924316 C2.36884598 58.88055542 2.30838593 57.66186768 2.24609375 56.40625 C2.18092056 55.14921265 2.11574738 53.89217529 2.04859924 52.5970459 C1.91131764 49.93066288 1.77567766 47.26425741 1.64282227 44.59765625 C1.47389246 41.20977601 1.29883019 37.82224881 1.12164211 34.43479156 C0.951821 31.17542884 0.78660369 27.91583405 0.62109375 24.65625 C0.55860947 23.4537561 0.49612518 22.25126221 0.43174744 21.0123291 C0.08528983 13.99784416 -0.0586732 7.0230714 0 0 Z " fill="#373535" transform="translate(1179,1159)"/>
<path d="M0 0 C6.1575143 4.7877001 9.85088781 11.0299502 11.12109375 18.71875 C9.47109375 19.70875 7.82109375 20.69875 6.12109375 21.71875 C5.77498047 20.72294922 5.77498047 20.72294922 5.421875 19.70703125 C2.77078377 12.52917554 -0.43294958 8.01605445 -6.87890625 3.71875 C-11.95101681 2.02804648 -16.76431565 1.94281242 -21.69140625 4.03125 C-32.31920732 9.99369745 -41.05825363 21.25679213 -44.87890625 32.71875 C-45.40056682 37.68735315 -45.45131135 41.57393979 -43.19140625 46.09375 C-39.6270232 50.13980643 -36.15908554 53.31070219 -30.87890625 54.71875 C-27.53816359 54.87293812 -24.22034227 54.83553806 -20.87890625 54.71875 C-20.38390625 57.68875 -20.38390625 57.68875 -19.87890625 60.71875 C-28.21114626 62.14603185 -34.15138254 61.59687358 -41.44140625 57.15625 C-47.35252797 52.96323978 -51.64157793 47.83896925 -54.31640625 41.09375 C-55.90546487 31.55939828 -54.11680682 23.63332299 -48.69140625 15.65625 C-47.4433658 13.99306638 -46.17217061 12.34701657 -44.87890625 10.71875 C-44.25757813 9.92082031 -43.63625 9.12289062 -42.99609375 8.30078125 C-31.35603313 -5.76625558 -15.56032814 -10.6107851 0 0 Z " fill="#373535" transform="translate(850.87890625,979.28125)"/>
<path d="M0 0 C4.455 1.98 4.455 1.98 9 4 C6.93392945 10.4611439 4.54656126 16.66884419 1.859375 22.89453125 C1.45989655 23.82866348 1.06041809 24.76279572 0.64883423 25.72523499 C-0.64761054 28.75569067 -1.94872719 31.78411474 -3.25 34.8125 C-5.05694673 39.02898319 -6.86117532 43.2466233 -8.6640625 47.46484375 C-9.1149826 48.51939758 -9.56590271 49.57395142 -10.03048706 50.66046143 C-12.92580661 57.44482616 -15.77635524 64.24611377 -18.5859375 71.06640625 C-18.93454834 71.91131119 -19.28315918 72.75621613 -19.64233398 73.62672424 C-21.27195801 77.57942157 -22.8936815 81.53512035 -24.50488281 85.49536133 C-25.07853218 86.89023703 -25.65241088 88.28501846 -26.2265625 89.6796875 C-26.96253662 91.48542236 -26.96253662 91.48542236 -27.71337891 93.32763672 C-29 96 -29 96 -31 97 C-32.9453125 96.22265625 -32.9453125 96.22265625 -35.125 95.0625 C-35.84945313 94.68222656 -36.57390625 94.30195312 -37.3203125 93.91015625 C-37.87460938 93.60980469 -38.42890625 93.30945312 -39 93 C-34.00782267 80.34870726 -28.83790508 67.7914085 -23.44378662 55.30633545 C-21.48665483 50.77573637 -19.53818417 46.24141647 -17.58984375 41.70703125 C-17.20189636 40.8044458 -16.81394897 39.90186035 -16.41424561 38.97192383 C-12.68793889 30.29242503 -9.01955605 21.58909739 -5.375 12.875 C-5.09524323 12.20616791 -4.81548645 11.53733582 -4.5272522 10.84823608 C-3.01576461 7.23315788 -1.50665079 3.61709654 0 0 Z " fill="#373535" transform="translate(1110,1098)"/>
<path d="M0 0 C3.44086718 1.5292743 6.09239931 3.62762929 9 6 C8.56768066 6.56283691 8.13536133 7.12567383 7.68994141 7.70556641 C0.1813745 17.49163223 -7.29644039 27.2790285 -14.40625 37.359375 C-19.81203176 44.99569778 -25.43549816 52.47910271 -31 60 C-33.64 58.02 -36.28 56.04 -39 54 C-34.99511224 47.90822796 -30.85040971 41.97372496 -26.5 36.125 C-25.27209364 34.46617675 -24.04423038 32.80732161 -22.81640625 31.1484375 C-22.19008301 30.3037793 -21.56375977 29.45912109 -20.91845703 28.58886719 C-17.75098729 24.31451632 -14.59420999 20.03229969 -11.4375 15.75 C-10.86644531 14.97672363 -10.29539062 14.20344727 -9.70703125 13.40673828 C-6.43118974 8.9655278 -3.19582941 4.49915649 0 0 Z " fill="#373535" transform="translate(875,1001)"/>
<path d="M0 0 C2.01479258 3.02218887 2.84379951 5.35773788 3.87939453 8.81665039 C4.239617 10.01121353 4.59983948 11.20577667 4.97097778 12.4365387 C5.35844515 13.74018835 5.74571878 15.0438956 6.1328125 16.34765625 C6.53315695 17.68390048 6.9338681 19.0200349 7.33493042 20.35606384 C8.17353346 23.15352108 9.00871573 25.95196894 9.84130859 28.7512207 C10.90980442 32.34313119 11.98517554 35.93293672 13.06289864 39.52208805 C13.89033224 42.27944979 14.71493862 45.03765028 15.53860092 47.79614067 C15.93423753 49.12046252 16.33057019 50.44457663 16.72760391 51.7684803 C17.28095538 53.61574534 17.83027471 55.46421678 18.37939453 57.31274414 C18.84999802 58.89134972 18.84999802 58.89134972 19.33010864 60.50184631 C20 63 20 63 20 65 C15.05 65.99 15.05 65.99 10 67 C7.64829807 59.09981697 5.30098248 51.1983498 2.95927429 43.29519939 C1.87181869 39.62559702 0.78285074 35.95645762 -0.30957031 32.28833008 C-1.36351914 28.74918152 -2.41349924 25.20887796 -3.46072388 21.66773415 C-3.86120117 20.31610932 -4.26311304 18.96490871 -4.66647339 17.61414146 C-5.23064985 15.72394759 -5.78928233 13.83210164 -6.34765625 11.94018555 C-6.66742432 10.86318893 -6.98719238 9.78619232 -7.31665039 8.67655945 C-8 6 -8 6 -8 3 C-5.36 2.01 -2.72 1.02 0 0 Z " fill="#373535" transform="translate(1556,1169)"/>
<path d="M0 0 C2.64 0.99 5.28 1.98 8 3 C-3.19018942 16.70798204 -3.19018942 16.70798204 -10 19 C-11.32 18.34 -12.64 17.68 -14 17 C-9.38 11.39 -4.76 5.78 0 0 Z " fill="#373535" transform="translate(1273,1153)"/>
<path d="M0 0 C3.34570207 0.46147615 5.4966613 1.76487616 8 4 C8 4.66 8 5.32 8 6 C5.11589917 7.54388697 2.21618192 9.05580923 -0.6875 10.5625 C-1.91243164 11.21895508 -1.91243164 11.21895508 -3.16210938 11.88867188 C-3.95810547 12.29794922 -4.75410156 12.70722656 -5.57421875 13.12890625 C-6.30213623 13.51119385 -7.03005371 13.89348145 -7.7800293 14.28735352 C-10.52722998 15.16924935 -12.25491517 14.76170301 -15 14 C-15 13.01 -15 12.02 -15 11 C-12.7212962 9.15939538 -10.48259802 7.50721382 -8.0625 5.875 C-6.76137593 4.97705905 -5.46057779 4.07864557 -4.16015625 3.1796875 C-3.11730469 2.46039062 -2.07445312 1.74109375 -1 1 C-0.67 0.67 -0.34 0.34 0 0 Z " fill="#373535" transform="translate(1075,1089)"/>
<path d="M0 0 C2.1875 2.0625 2.1875 2.0625 2.6875 5.625 C2.5225 6.759375 2.3575 7.89375 2.1875 9.0625 C-1.03393276 11.21012184 -2.0720467 11.623568 -5.8125 11.0625 C-7.6875 9.4375 -7.6875 9.4375 -8.8125 7.0625 C-8.8125 3.9375 -8.8125 3.9375 -7.8125 1.0625 C-4.76329103 -1.05500623 -3.52508391 -1.17502797 0 0 Z " fill="#373535" transform="translate(1549.8125,1146.9375)"/>
<path d="M0 0 C3.0625 0.3125 3.0625 0.3125 5 1.4375 C6.0625 3.3125 6.0625 3.3125 5.9375 6.375 C5.0625 9.3125 5.0625 9.3125 2.0625 11.3125 C-1.25990324 10.9883631 -2.54526303 10.70473697 -4.9375 8.3125 C-5.1875 5.3125 -5.1875 5.3125 -4.9375 2.3125 C-2.9375 0.3125 -2.9375 0.3125 0 0 Z " fill="#373535" transform="translate(890.9375,982.6875)"/>
<path d="" fill="#373535" transform="translate(0,0)"/>
  <script  type="text/javascript">
    <![CDATA[
         var c=window.location.search.split('color=')[1]; c=parseInt(c,16); if(!isNaN(c)){c=c.toString(16);var p=document.getElementsByTagName('path');for(var i=0,l=p.length;i<l;i++){var s=p[i].style;s.fill='#'+c;} var p2=document.getElementsByTagName('polygon');for(var i=0,l=p2.length;i<l;i++){var s=p2[i].style;s.fill='#'+c;} var p3=document.getElementsByTagName('circle');for(var i=0,l=p3.length;i<l;i++){var s=p3[i].style;s.fill='#'+c;} }
        ]]>
</script>
</svg>
