<svg version="1.1" xmlns="http://www.w3.org/2000/svg" xmlns:xlink="http://www.w3.org/1999/xlink" x="0px" y="0px"
	 viewBox="0 0 100 100" style="enable-background:new 0 0 100 100;" xml:space="preserve">
<g id="Vrstva_245">
	<g>
		<g>
			<path d="M50,91.502C27.116,91.502,8.498,72.884,8.498,50C8.498,27.116,27.116,8.498,50,8.498
				c22.884,0,41.502,18.618,41.502,41.501C91.502,72.884,72.884,91.502,50,91.502z M50,11.498C28.769,11.498,11.498,28.77,11.498,50
				S28.769,88.502,50,88.502c21.23,0,38.502-17.272,38.502-38.502S71.23,11.498,50,11.498z"/>
		</g>
		<g>
			<path d="M50,91c-0.828,0-1.5-0.671-1.5-1.5v-79C48.5,9.671,49.172,9,50,9c0.828,0,1.5,0.671,1.5,1.5v79
				C51.5,90.328,50.828,91,50,91z"/>
		</g>
		<g>
			<path d="M49.678,32.998c-11.811,0-22.926-2.617-30.497-7.181c-0.709-0.428-0.938-1.35-0.511-2.059
				c0.429-0.71,1.351-0.938,2.06-0.51c7.117,4.29,17.668,6.75,28.948,6.75c11.521,0,22.214-2.546,29.335-6.985
				c0.702-0.438,1.627-0.224,2.067,0.479c0.438,0.703,0.223,1.628-0.479,2.066C73.016,30.287,61.744,32.998,49.678,32.998z"/>
		</g>
		<g>
			<path d="M79.761,77.471c-0.269,0-0.539-0.071-0.784-0.222c-7.152-4.396-17.832-6.917-29.3-6.917
				c-11.229,0-21.771,2.438-28.919,6.688c-0.711,0.424-1.633,0.189-2.056-0.523c-0.424-0.712-0.189-1.633,0.523-2.056
				c7.6-4.518,18.699-7.109,30.452-7.109c12.007,0,23.259,2.683,30.87,7.361c0.706,0.434,0.927,1.358,0.493,2.063
				C80.757,77.218,80.265,77.471,79.761,77.471z"/>
		</g>
		<g>
			<path d="M89.5,53.5h-79C9.672,53.5,9,52.828,9,52c0-0.829,0.672-1.5,1.5-1.5h79c0.828,0,1.5,0.671,1.5,1.5
				C91,52.828,90.328,53.5,89.5,53.5z"/>
		</g>
		<g>
			<path d="M49.881,90.19c-12.423,0-22.154-17.706-22.154-40.31c0-22.604,9.731-40.31,22.154-40.31
				c12.423,0,22.154,17.706,22.154,40.31C72.035,72.484,62.304,90.19,49.881,90.19z M49.881,12.571
				c-10.562,0-19.154,16.737-19.154,37.31c0,20.573,8.593,37.31,19.154,37.31c10.562,0,19.154-16.737,19.154-37.31
				C69.035,29.308,60.442,12.571,49.881,12.571z"/>
		</g>
	</g>
</g>
<script  type="text/javascript">
    <![CDATA[
         var c=window.location.search.split('color=')[1]; c=parseInt(c,16); if(!isNaN(c)){c=c.toString(16);var p=document.getElementsByTagName('path');for(var i=0,l=p.length;i<l;i++){var s=p[i].style;s.fill='#'+c;} var p2=document.getElementsByTagName('polygon');for(var i=0,l=p2.length;i<l;i++){var s=p2[i].style;s.fill='#'+c;} var p3=document.getElementsByTagName('circle');for(var i=0,l=p3.length;i<l;i++){var s=p3[i].style;s.fill='#'+c;} }
        ]]>
</script>
</svg>
